<svg width="40" height="24" viewBox="0 0 40 24" fill="none" xmlns="http://www.w3.org/2000/svg">
<rect x="0.5" y="0.5" width="39" height="23" rx="11.5" stroke="black"/>
<g clip-path="url(#clip0_11596_14)">
<path d="M23 16.5C23.3978 16.5 23.7794 16.658 24.0607 16.9393C24.342 17.2206 24.5 17.6022 24.5 18C24.5 17.6022 24.658 17.2206 24.9393 16.9393C25.2206 16.658 25.6022 16.5 26 16.5C25.6022 16.5 25.2206 16.342 24.9393 16.0607C24.658 15.7794 24.5 15.3978 24.5 15C24.5 15.3978 24.342 15.7794 24.0607 16.0607C23.7794 16.342 23.3978 16.5 23 16.5ZM23 7.5C23.3978 7.5 23.7794 7.65804 24.0607 7.93934C24.342 8.22064 24.5 8.60218 24.5 9C24.5 8.60218 24.658 8.22064 24.9393 7.93934C25.2206 7.65804 25.6022 7.5 26 7.5C25.6022 7.5 25.2206 7.34196 24.9393 7.06066C24.658 6.77936 24.5 6.39782 24.5 6C24.5 6.39782 24.342 6.77936 24.0607 7.06066C23.7794 7.34196 23.3978 7.5 23 7.5ZM17.75 16.5C17.75 15.3065 18.2241 14.1619 19.068 13.318C19.9119 12.4741 21.0565 12 22.25 12C21.0565 12 19.9119 11.5259 19.068 10.682C18.2241 9.83807 17.75 8.69347 17.75 7.5C17.75 8.69347 17.2759 9.83807 16.432 10.682C15.5881 11.5259 14.4435 12 13.25 12C14.4435 12 15.5881 12.4741 16.432 13.318C17.2759 14.1619 17.75 15.3065 17.75 16.5Z" stroke="black" stroke-width="1.5" stroke-linecap="round" stroke-linejoin="round"/>
</g>
<defs>
<clipPath id="clip0_11596_14">
<rect width="18" height="18" fill="white" transform="translate(11 3)"/>
</clipPath>
</defs>
</svg>
