<svg xmlns="http://www.w3.org/2000/svg" width="1200" height="96" fill="none" viewBox="0 0 1200 96"><g clip-path="url(#clip0_13525_4769)"><mask id="mask0_13525_4769" style="mask-type:luminance" width="1200" height="96" x="0" y="0" maskUnits="userSpaceOnUse"><path fill="#fff" d="M1200 0H0V96H1200V0Z"/></mask><g mask="url(#mask0_13525_4769)"><path fill="#DC0D16" d="M1200 0H0V96H1200V0Z"/><path stroke="#F37B80" stroke-miterlimit="10" stroke-width="1.3" d="M309.057 85.6007L325.691 94.7356C325.991 94.9003 326.354 94.9003 326.654 94.7356L343.287 85.6007M309.057 85.6007L292.425 94.7356C292.125 94.9003 291.762 94.9003 291.462 94.7356L274.829 85.6007M309.057 85.6007L291.943 76.2014M309.057 85.6007L326.173 76.2014M343.287 85.6007L359.92 94.7356C360.219 94.9003 360.582 94.9003 360.882 94.7356L377.515 85.6007M343.287 85.6007L326.173 76.2014M343.287 85.6007L360.401 76.2014M291.943 76.2014V57.3993M291.943 76.2014L274.829 85.6007M326.173 76.2014V57.3993M274.829 85.6007L258.196 94.7356C257.897 94.9003 257.533 94.9003 257.234 94.7356L240.601 85.6007M274.829 85.6007L257.715 76.2014M445.973 85.6007L462.605 94.7356C462.905 94.9003 463.268 94.9003 463.568 94.7356L480.201 85.6007M445.973 85.6007L429.34 94.7356C429.04 94.9003 428.677 94.9003 428.377 94.7356L411.744 85.6007M445.973 85.6007L428.858 76.2014M445.973 85.6007L463.087 76.2014M480.201 85.6007L496.834 94.7356C497.133 94.9003 497.497 94.9003 497.796 94.7356L514.43 85.6007M480.201 85.6007L463.087 76.2014M480.201 85.6007L497.315 76.2014M428.858 76.2014L411.744 85.6007M428.858 76.2014V57.3993M463.087 76.2014V57.3993M411.744 85.6007L395.111 94.7356C394.811 94.9003 394.448 94.9003 394.148 94.7356L377.515 85.6007M411.744 85.6007L394.629 76.2014M377.515 85.6007L360.401 76.2014M377.515 85.6007L394.629 76.2014M360.401 76.2014V57.3993M394.629 76.2014V57.3993M514.43 85.6007L531.063 94.7356C531.363 94.9003 531.726 94.9003 532.026 94.7356L548.658 85.6007M514.43 85.6007L497.315 76.2014M514.43 85.6007L531.544 76.2014M548.658 85.6007L565.291 94.7356C565.591 94.9003 565.954 94.9003 566.254 94.7356L582.887 85.6007M548.658 85.6007L531.544 76.2014M548.658 85.6007L565.773 76.2014M497.315 76.2014V57.3993M531.544 76.2014V57.3993M582.887 85.6007L599.52 94.7356C599.82 94.9003 600.183 94.9003 600.483 94.7356L617.116 85.6007M582.887 85.6007L565.773 76.2014M582.887 85.6007L600.002 76.2014M617.116 85.6007L633.749 94.7356C634.049 94.9003 634.412 94.9003 634.712 94.7356L651.344 85.6007M617.116 85.6007L600.002 76.2014M617.116 85.6007L634.23 76.2014M565.773 76.2014V57.3993M600.002 76.2014V57.3993M651.344 85.6007L634.23 76.2014M651.344 85.6007L667.977 94.7356C668.277 94.9003 668.64 94.9003 668.94 94.7356L685.574 85.6007M651.344 85.6007L668.458 76.2014M634.23 76.2014V57.3993M326.173 38.6007V19.7987M326.173 38.6007L309.057 48M326.173 38.6007L343.287 48M326.173 19.7987L309.057 10.3994M326.173 19.7987L343.287 10.3994M309.057 48L291.943 38.6007M309.057 48L326.173 57.3993M309.057 48L291.943 57.3993M343.287 48L360.401 38.6007M343.287 48L360.401 57.3993M343.287 48L326.173 57.3993M309.057 10.3994L291.943 19.7987M309.057 10.3994L292.425 1.26441C292.125 1.09975 291.762 1.09975 291.462 1.26441L274.829 10.3994M309.057 10.3994L325.691 1.26439C325.991 1.09974 326.354 1.09975 326.654 1.2644L343.287 10.3994M343.287 10.3994L360.401 19.7987M343.287 10.3994L359.92 1.26441C360.219 1.09975 360.582 1.09975 360.882 1.26441L377.515 10.3994M291.943 19.7987V38.6007M291.943 19.7987L274.829 10.3994M291.943 38.6007L274.829 48M274.829 10.3994L257.715 19.7987M274.829 10.3994L258.196 1.26439C257.897 1.09973 257.533 1.09973 257.234 1.26439L240.601 10.3994M274.829 48L291.943 57.3993M274.829 48L257.715 38.6007M274.829 48L257.715 57.3993M463.087 38.6007V19.7987M463.087 38.6007L445.973 48M463.087 38.6007L480.201 48M463.087 19.7987L445.973 10.3994M463.087 19.7987L480.201 10.3994M445.973 48L428.858 38.6007M445.973 48L463.087 57.3993M445.973 48L428.858 57.3993M480.201 48L497.315 38.6007M480.201 48L497.315 57.3993M480.201 48L463.087 57.3993M445.973 10.3994L428.858 19.7987M445.973 10.3994L429.34 1.2644C429.04 1.09974 428.677 1.09974 428.377 1.2644L411.744 10.3994M445.973 10.3994L462.605 1.2644C462.905 1.09974 463.268 1.09974 463.568 1.2644L480.201 10.3994M480.201 10.3994L497.315 19.7987M480.201 10.3994L496.834 1.26439C497.133 1.09974 497.497 1.09973 497.796 1.26438L514.43 10.3994M428.858 19.7987V38.6007M428.858 19.7987L411.744 10.3994M428.858 38.6007L411.744 48M411.744 10.3994L394.629 19.7987M411.744 10.3994L395.111 1.26438C394.811 1.09973 394.448 1.09974 394.148 1.26439L377.515 10.3994M411.744 48L394.629 38.6007M411.744 48L428.858 57.3993M411.744 48L394.629 57.3993M394.629 38.6007V19.7987M394.629 38.6007L377.515 48M394.629 19.7987L377.515 10.3994M377.515 48L360.401 38.6007M377.515 48L394.629 57.3993M377.515 48L360.401 57.3993M377.515 10.3994L360.401 19.7987M360.401 19.7987V38.6007M531.544 38.6007V19.7987M531.544 38.6007L514.43 48M531.544 38.6007L548.658 48M531.544 19.7987L514.43 10.3994M531.544 19.7987L548.658 10.3994M514.43 48L497.315 38.6007M514.43 48L531.544 57.3993M514.43 48L497.315 57.3993M548.658 48L565.773 38.6007M548.658 48L565.773 57.3993M548.658 48L531.544 57.3993M514.43 10.3994L497.315 19.7987M514.43 10.3994L531.063 1.2644C531.363 1.09974 531.726 1.09974 532.026 1.2644L548.658 10.3994M548.658 10.3994L565.773 19.7987M548.658 10.3994L565.291 1.2644C565.591 1.09974 565.954 1.09974 566.254 1.2644L582.887 10.3994M497.315 19.7987V38.6007M600.002 38.6007V19.7987M600.002 38.6007L582.887 48M600.002 38.6007L617.116 48M600.002 19.7987L582.887 10.3994M600.002 19.7987L617.116 10.3994M582.887 48L565.773 38.6007M582.887 48L600.002 57.3993M582.887 48L565.773 57.3993M617.116 48L634.23 38.6007M617.116 48L634.23 57.3993M617.116 48L600.002 57.3993M582.887 10.3994L565.773 19.7987M582.887 10.3994L599.52 1.26437C599.82 1.09972 600.183 1.09973 600.483 1.26438L617.116 10.3994M617.116 10.3994L634.23 19.7987M617.116 10.3994L633.749 1.26439C634.049 1.09973 634.412 1.09973 634.712 1.26439L651.344 10.3994M565.773 19.7987V38.6007M634.23 38.6007V19.7987M634.23 38.6007L651.344 48M634.23 19.7987L651.344 10.3994M651.344 48L634.23 57.3993M651.344 48L668.458 38.6007M651.344 48L668.458 57.3993M651.344 10.3994L668.458 19.7987M651.344 10.3994L667.977 1.2644C668.277 1.09975 668.64 1.09974 668.94 1.26439L685.574 10.3994M103.686 85.6007L120.319 94.7356C120.619 94.9003 120.982 94.9003 121.282 94.7356L137.915 85.6007M103.686 85.6007L87.0531 94.7356C86.7533 94.9003 86.3901 94.9003 86.0903 94.7356L69.4574 85.6007M103.686 85.6007L86.5717 76.2014M103.686 85.6007L120.8 76.2014M137.915 85.6007L154.548 94.7356C154.848 94.9003 155.211 94.9003 155.511 94.7356L172.143 85.6007M137.915 85.6007L120.8 76.2014M137.915 85.6007L155.029 76.2014M86.5717 76.2014L69.4574 85.6007M86.5717 76.2014V57.3993M120.8 76.2014V57.3993M69.4574 85.6007L52.8244 94.7356C52.5246 94.9003 52.1614 94.9003 51.8616 94.7356L35.2287 85.6007M69.4574 85.6007L52.343 76.2014M35.2287 85.6007L18.5957 94.7356C18.2959 94.9003 17.9328 94.9003 17.633 94.7356L2.59595 86.4772C1.90447 86.0974 1.90447 85.1039 2.59595 84.7242L18.1143 76.2014M35.2287 85.6007L18.1143 76.2014M35.2287 85.6007L52.343 76.2014M18.1143 76.2014V57.3993M52.343 76.2014V57.3993M172.143 85.6007L188.776 94.7356C189.076 94.9003 189.439 94.9003 189.739 94.7356L206.372 85.6007M172.143 85.6007L155.029 76.2014M172.143 85.6007L189.257 76.2014M206.372 85.6007L223.005 94.7356C223.305 94.9003 223.668 94.9003 223.968 94.7356L240.601 85.6007M206.372 85.6007L189.257 76.2014M206.372 85.6007L223.487 76.2014M155.029 76.2014V57.3993M189.257 76.2014V57.3993M240.601 85.6007L223.487 76.2014M240.601 85.6007L257.715 76.2014M223.487 76.2014V57.3993M257.715 76.2014V57.3993M120.8 38.6007V19.7987M120.8 38.6007L103.686 48M120.8 38.6007L137.915 48M120.8 19.7987L103.686 10.3994M120.8 19.7987L137.915 10.3994M103.686 48L86.5717 38.6007M103.686 48L120.8 57.3993M103.686 48L86.5717 57.3993M137.915 48L155.029 38.6007M137.915 48L155.029 57.3993M137.915 48L120.8 57.3993M103.686 10.3994L86.5717 19.7987M103.686 10.3994L87.0531 1.2644C86.7533 1.09974 86.3901 1.09974 86.0903 1.26439L69.4574 10.3994M103.686 10.3994L120.319 1.26439C120.619 1.09974 120.982 1.09974 121.282 1.26439L137.915 10.3994M137.915 10.3994L155.029 19.7987M137.915 10.3994L154.548 1.26439C154.848 1.09974 155.211 1.09974 155.511 1.2644L172.143 10.3994M86.5717 19.7987V38.6007M86.5717 19.7987L69.4574 10.3994M86.5717 38.6007L69.4574 48M69.4574 10.3994L52.343 19.7987M69.4574 10.3994L52.8244 1.26439C52.5246 1.09974 52.1614 1.09974 51.8616 1.26439L35.2287 10.3994M69.4574 48L52.343 38.6007M69.4574 48L86.5717 57.3993M69.4574 48L52.343 57.3993M52.343 38.6007V19.7987M52.343 38.6007L35.2287 48M52.343 19.7987L35.2287 10.3994M35.2287 48L18.1143 38.6007M35.2287 48L52.343 57.3993M35.2287 48L18.1143 57.3993M35.2287 10.3994L18.1143 19.7987M35.2287 10.3994L18.5957 1.2644C18.2959 1.09975 17.9328 1.09975 17.633 1.2644L2.59595 9.52287C1.90446 9.90264 1.90446 10.8961 2.59595 11.2759L18.1143 19.7987M18.1143 19.7987V38.6007M18.1143 38.6007L2.59595 47.1235C1.90447 47.5033 1.90447 48.4968 2.59595 48.8765L18.1143 57.3993M189.257 38.6007V19.7987M189.257 38.6007L172.143 48M189.257 38.6007L206.372 48M189.257 19.7987L172.143 10.3994M189.257 19.7987L206.372 10.3994M172.143 48L155.029 38.6007M172.143 48L189.257 57.3993M172.143 48L155.029 57.3993M206.372 48L223.487 38.6007M206.372 48L223.487 57.3993M206.372 48L189.257 57.3993M172.143 10.3994L155.029 19.7987M172.143 10.3994L188.776 1.2644C189.076 1.09974 189.439 1.09974 189.739 1.2644L206.372 10.3994M206.372 10.3994L223.487 19.7987M206.372 10.3994L223.005 1.26438C223.305 1.09973 223.668 1.09974 223.968 1.26439L240.601 10.3994M155.029 19.7987V38.6007M257.715 38.6007V19.7987M257.715 38.6007L240.601 48M257.715 19.7987L240.601 10.3994M240.601 48L223.487 38.6007M240.601 48L257.715 57.3993M240.601 48L223.487 57.3993M240.601 10.3994L223.487 19.7987M223.487 19.7987V38.6007M993.631 85.6007L1010.26 94.7356C1010.56 94.9003 1010.93 94.9003 1011.23 94.7356L1027.86 85.6007M993.631 85.6007L976.998 94.7356C976.699 94.9003 976.335 94.9003 976.036 94.7356L959.403 85.6007M993.631 85.6007L976.517 76.2014M993.631 85.6007L1010.75 76.2014M1027.86 85.6007L1044.5 94.7356C1044.8 94.9003 1045.16 94.9002 1045.46 94.7355L1062.08 85.6007M1027.86 85.6007L1010.75 76.2014M1027.86 85.6007L1044.98 76.2014M976.517 76.2014V57.3993M976.517 76.2014L959.403 85.6007M1010.75 76.2014V57.3993M959.403 85.6007L942.769 94.7356C942.469 94.9003 942.106 94.9003 941.806 94.7356L925.174 85.6007M959.403 85.6007L942.288 76.2014M1130.55 85.6007L1147.17 94.7355C1147.47 94.9002 1147.84 94.9003 1148.14 94.7356L1164.77 85.6007M1130.55 85.6007L1113.91 94.7356C1113.61 94.9003 1113.25 94.9002 1112.95 94.7355L1096.32 85.6007M1130.55 85.6007L1113.43 76.2014M1130.55 85.6007L1147.66 76.2014M1164.77 85.6007L1181.41 94.7356C1181.71 94.9003 1182.07 94.9002 1182.37 94.7355L1197.4 86.4771C1198.1 86.0973 1198.1 85.1041 1197.4 84.7242L1181.89 76.2014M1164.77 85.6007L1147.66 76.2014M1164.77 85.6007L1181.89 76.2014M1113.43 76.2014L1096.32 85.6007M1113.43 76.2014V57.3993M1147.66 76.2014V57.3993M1096.32 85.6007L1079.68 94.7357C1079.38 94.9003 1079.02 94.9003 1078.72 94.7357L1062.08 85.6007M1096.32 85.6007L1079.2 76.2014M1062.08 85.6007L1044.98 76.2014M1062.08 85.6007L1079.2 76.2014M1044.98 76.2014V57.3993M1079.2 76.2014V57.3993M1181.89 76.2014V57.3993M1010.75 38.6007V19.7987M1010.75 38.6007L993.631 48M1010.75 38.6007L1027.86 48M1010.75 19.7987L993.631 10.3994M1010.75 19.7987L1027.86 10.3994M993.631 48L976.517 38.6007M993.631 48L1010.75 57.3993M993.631 48L976.517 57.3993M1027.86 48L1044.98 38.6007M1027.86 48L1044.98 57.3993M1027.86 48L1010.75 57.3993M993.631 10.3994L976.517 19.7987M993.631 10.3994L976.998 1.26441C976.699 1.09975 976.335 1.09975 976.036 1.26441L959.403 10.3994M993.631 10.3994L1010.26 1.26441C1010.56 1.09975 1010.93 1.09975 1011.23 1.26441L1027.86 10.3994M1027.86 10.3994L1044.98 19.7987M1027.86 10.3994L1044.5 1.26439C1044.8 1.09975 1045.16 1.09979 1045.46 1.2645L1062.08 10.3994M976.517 19.7987V38.6007M976.517 19.7987L959.403 10.3994M976.517 38.6007L959.403 48M959.403 10.3994L942.288 19.7987M959.403 10.3994L942.769 1.26437C942.469 1.09972 942.106 1.09973 941.806 1.26438L925.174 10.3994M959.403 48L976.517 57.3993M959.403 48L942.288 38.6007M959.403 48L942.288 57.3993M1147.66 38.6007V19.7987M1147.66 38.6007L1130.55 48M1147.66 38.6007L1164.77 48M1147.66 19.7987L1130.55 10.3994M1147.66 19.7987L1164.77 10.3994M1130.55 48L1113.43 38.6007M1130.55 48L1147.66 57.3993M1130.55 48L1113.43 57.3993M1164.77 48L1181.89 38.6007M1164.77 48L1181.89 57.3993M1164.77 48L1147.66 57.3993M1130.55 10.3994L1113.43 19.7987M1130.55 10.3994L1113.91 1.26437C1113.61 1.09973 1113.25 1.09977 1112.95 1.26448L1096.32 10.3994M1130.55 10.3994L1147.17 1.26448C1147.47 1.09977 1147.84 1.09973 1148.14 1.26437L1164.77 10.3994M1164.77 10.3994L1181.89 19.7987M1164.77 10.3994L1181.41 1.26437C1181.71 1.09973 1182.07 1.09977 1182.37 1.26448L1197.4 9.52294C1198.1 9.90275 1198.1 10.896 1197.4 11.2758L1181.89 19.7987M1113.43 19.7987V38.6007M1113.43 19.7987L1096.32 10.3994M1113.43 38.6007L1096.32 48M1096.32 10.3994L1079.2 19.7987M1096.32 10.3994L1079.68 1.26429C1079.38 1.0997 1079.02 1.09969 1078.72 1.26429L1062.08 10.3994M1096.32 48L1079.2 38.6007M1096.32 48L1113.43 57.3993M1096.32 48L1079.2 57.3993M1079.2 38.6007V19.7987M1079.2 38.6007L1062.08 48M1079.2 19.7987L1062.08 10.3994M1062.08 48L1044.98 38.6007M1062.08 48L1079.2 57.3993M1062.08 48L1044.98 57.3993M1062.08 10.3994L1044.98 19.7987M1044.98 19.7987V38.6007M1181.89 19.7987V38.6007M1181.89 38.6007L1197.4 47.1236C1198.1 47.5034 1198.1 48.4967 1197.4 48.8765L1181.89 57.3993M685.574 85.6007L702.206 94.7356C702.506 94.9003 702.869 94.9003 703.169 94.7356L719.802 85.6007M685.574 85.6007L668.458 76.2014M685.574 85.6007L702.688 76.2014M668.458 76.2014V57.3993M788.259 85.6007L804.892 94.7356C805.192 94.9003 805.555 94.9003 805.855 94.7356L822.488 85.6007M788.259 85.6007L771.627 94.7356C771.327 94.9003 770.964 94.9003 770.664 94.7356L754.03 85.6007M788.259 85.6007L771.145 76.2014M788.259 85.6007L805.374 76.2014M822.488 85.6007L839.12 94.7356C839.42 94.9003 839.783 94.9003 840.083 94.7356L856.716 85.6007M822.488 85.6007L805.374 76.2014M822.488 85.6007L839.602 76.2014M771.145 76.2014L754.03 85.6007M771.145 76.2014V57.3993M805.374 76.2014V57.3993M754.03 85.6007L737.397 94.7356C737.098 94.9003 736.734 94.9003 736.435 94.7356L719.802 85.6007M754.03 85.6007L736.916 76.2014M719.802 85.6007L702.688 76.2014M719.802 85.6007L736.916 76.2014M702.688 76.2014V57.3993M736.916 76.2014V57.3993M856.716 85.6007L873.35 94.7356C873.65 94.9003 874.013 94.9003 874.313 94.7356L890.945 85.6007M856.716 85.6007L839.602 76.2014M856.716 85.6007L873.831 76.2014M890.945 85.6007L907.578 94.7356C907.878 94.9003 908.241 94.9003 908.541 94.7356L925.174 85.6007M890.945 85.6007L873.831 76.2014M890.945 85.6007L908.059 76.2014M839.602 76.2014V57.3993M873.831 76.2014V57.3993M925.174 85.6007L908.059 76.2014M925.174 85.6007L942.288 76.2014M908.059 76.2014V57.3993M942.288 76.2014V57.3993M668.458 38.6007V19.7987M668.458 38.6007L685.574 48M668.458 19.7987L685.574 10.3994M685.574 48L702.688 38.6007M685.574 48L702.688 57.3993M685.574 48L668.458 57.3993M685.574 10.3994L702.688 19.7987M685.574 10.3994L702.206 1.26441C702.506 1.09975 702.869 1.09975 703.169 1.26441L719.802 10.3994M805.374 38.6007V19.7987M805.374 38.6007L788.259 48M805.374 38.6007L822.488 48M805.374 19.7987L788.259 10.3994M805.374 19.7987L822.488 10.3994M788.259 48L771.145 38.6007M788.259 48L805.374 57.3993M788.259 48L771.145 57.3993M822.488 48L839.602 38.6007M822.488 48L839.602 57.3993M822.488 48L805.374 57.3993M788.259 10.3994L771.145 19.7987M788.259 10.3994L771.627 1.26439C771.327 1.09974 770.964 1.09973 770.664 1.26438L754.03 10.3994M788.259 10.3994L804.892 1.2644C805.192 1.09974 805.555 1.09974 805.855 1.2644L822.488 10.3994M822.488 10.3994L839.602 19.7987M822.488 10.3994L839.12 1.2644C839.42 1.09974 839.783 1.09974 840.083 1.2644L856.716 10.3994M771.145 19.7987V38.6007M771.145 19.7987L754.03 10.3994M771.145 38.6007L754.03 48M754.03 10.3994L736.916 19.7987M754.03 10.3994L737.397 1.2644C737.098 1.09974 736.734 1.09974 736.435 1.2644L719.802 10.3994M754.03 48L736.916 38.6007M754.03 48L771.145 57.3993M754.03 48L736.916 57.3993M736.916 38.6007V19.7987M736.916 38.6007L719.802 48M736.916 19.7987L719.802 10.3994M719.802 48L702.688 38.6007M719.802 48L736.916 57.3993M719.802 48L702.688 57.3993M719.802 10.3994L702.688 19.7987M702.688 19.7987V38.6007M873.831 38.6007V19.7987M873.831 38.6007L856.716 48M873.831 38.6007L890.945 48M873.831 19.7987L856.716 10.3994M873.831 19.7987L890.945 10.3994M856.716 48L839.602 38.6007M856.716 48L873.831 57.3993M856.716 48L839.602 57.3993M890.945 48L908.059 38.6007M890.945 48L908.059 57.3993M890.945 48L873.831 57.3993M856.716 10.3994L839.602 19.7987M856.716 10.3994L873.35 1.26438C873.65 1.09973 874.013 1.09974 874.313 1.26439L890.945 10.3994M890.945 10.3994L908.059 19.7987M890.945 10.3994L907.578 1.2644C907.878 1.09974 908.241 1.09974 908.541 1.2644L925.174 10.3994M839.602 19.7987V38.6007M942.288 38.6007V19.7987M942.288 38.6007L925.174 48M942.288 19.7987L925.174 10.3994M925.174 48L908.059 38.6007M925.174 48L942.288 57.3993M925.174 48L908.059 57.3993M925.174 10.3994L908.059 19.7987M908.059 19.7987V38.6007" opacity=".7"/></g></g><defs><clipPath id="clip0_13525_4769"><rect width="1200" height="96" fill="#fff"/></clipPath></defs></svg>