<svg xmlns="http://www.w3.org/2000/svg" id="Layer_1" x="0" y="0" version="1.1" viewBox="0 0 75 75" style="enable-background:new 0 0 75 75" xml:space="preserve"><style type="text/css">.st0{fill:#6234e8}</style><path d="M56.9,19.9C56.9,19.8,56.9,19.8,56.9,19.9c-3.7-1.7-7.5-2.9-11.4-3.6c-0.1,0-0.1,0-0.2,0.1	c-0.5,0.9-1,1.9-1.4,2.9c-4.2-0.6-8.5-0.6-12.7,0c-0.4-1-0.9-2-1.4-2.9c0-0.1-0.1-0.1-0.2-0.1c-3.9,0.7-7.7,1.9-11.3,3.5	c0,0-0.1,0-0.1,0.1c-7.2,10.8-9.2,21.3-8.2,31.7c0,0.1,0,0.1,0.1,0.1c4.2,3.1,8.9,5.5,13.9,7c0.1,0,0.2,0,0.2-0.1	c1.1-1.5,2-3,2.8-4.6c0-0.1,0-0.2-0.1-0.2c0,0,0,0,0,0c-1.5-0.6-3-1.3-4.3-2.1c-0.1-0.1-0.1-0.2-0.1-0.2c0,0,0,0,0-0.1	c0.3-0.2,0.6-0.4,0.9-0.7c0.1,0,0.1-0.1,0.2,0c9.1,4.2,19,4.2,28,0c0.1,0,0.1,0,0.2,0c0.3,0.2,0.6,0.5,0.9,0.7	c0.1,0.1,0.1,0.2,0,0.3c0,0,0,0-0.1,0c-1.4,0.8-2.8,1.5-4.4,2.1c-0.1,0-0.1,0.1-0.1,0.2c0,0,0,0,0,0c0.8,1.6,1.8,3.2,2.8,4.6	c0,0.1,0.1,0.1,0.2,0.1c5-1.5,9.7-3.9,13.9-7c0,0,0.1-0.1,0.1-0.1C66.3,39.5,63.2,29.1,56.9,19.9z M28.3,45.2c-2.7,0-5-2.5-5-5.6	s2.2-5.6,5-5.6c2.8,0,5.1,2.5,5,5.6C33.3,42.7,31,45.2,28.3,45.2z M46.8,45.2c-2.7,0-5-2.5-5-5.6s2.2-5.6,5-5.6c2.8,0,5.1,2.5,5,5.6	C51.8,42.7,49.6,45.2,46.8,45.2z" class="st0"/></svg>