<?xml version="1.0" encoding="utf-8"?>
<!-- Generator: Adobe Illustrator 24.1.0, SVG Export Plug-In . SVG Version: 6.00 Build 0)  -->
<svg version="1.1" id="Layer_1" xmlns="http://www.w3.org/2000/svg" x="0px" y="0px"
     viewBox="0 0 75 75" style="enable-background:new 0 0 75 75;" xml:space="preserve">
<style type="text/css">
	.st0{fill:#265D9E;}
</style>
<path class="st0" d="M55.3,33.5l-0.9,6.8c-0.1,1.1-1.1,2-2.3,2H41.1V71c-1.2,0.1-2.4,0.2-3.6,0.2c-2.7,0-5.3-0.3-7.8-0.8v-28h-8.5
	c-0.8,0-1.4-0.6-1.4-1.4v-8.6c0-0.8,0.6-1.4,1.4-1.4h8.5V18.1c0-7.9,6.4-14.3,14.2-14.3h10c0.8,0,1.4,0.6,1.4,1.4v8.6
	c0,0.8-0.6,1.4-1.4,1.4h-7.1c-3.1,0-5.7,2.6-5.7,5.7v10H53C54.4,31,55.4,32.2,55.3,33.5z"/>
</svg>
