<?xml version="1.0" encoding="utf-8"?>
<!-- Generator: Adobe Illustrator 24.1.0, SVG Export Plug-In . SVG Version: 6.00 Build 0)  -->
<svg version="1.1" id="Layer_1" xmlns="http://www.w3.org/2000/svg" xmlns:xlink="http://www.w3.org/1999/xlink" x="0px" y="0px"
	 viewBox="0 0 75 75" style="enable-background:new 0 0 75 75;" xml:space="preserve">
<style type="text/css">
	.st0{fill:#141416;}
</style>
<g>
	<path class="st0" d="M25.8,68.1c-0.2-0.1-0.4-0.1-0.6-0.2C25.3,67.9,25.5,68,25.8,68.1z"/>
	<path class="st0" d="M66.5,27.3c0-4.5-1.6-8.2-4.2-11.1c0.4-1,1.8-5.3-0.4-10.9c0,0-3.5-1.1-11.3,4.2c-3.3-0.9-6.8-1.4-10.2-1.4
		c-3.5,0-6.9,0.5-10.3,1.4c-7.8-5.3-11.3-4.2-11.3-4.2c-2.2,5.7-0.8,9.9-0.4,10.9c-2.6,2.9-4.2,6.6-4.2,11.1
		c0,15.9,9.6,19.4,18.7,20.4c-1.2,1-2.2,2.9-2.6,5.5c-2.4,1.1-8.3,2.9-11.9-3.4c0,0-2.2-4-6.3-4.2c0,0-4,0-0.3,2.5
		c0,0,2.7,1.2,4.5,6c0,0,2.4,7.4,13.8,4.9c0,1.6,0,6,0,10.4c3.3,0.8,6.7,1.3,10.2,1.3c3.5,0,6.9-0.5,10.2-1.3c0-5.4,0-11.4,0-14.1
		c0-3.9-1.3-6.4-2.8-7.7C56.9,46.7,66.5,43.2,66.5,27.3z"/>
</g>
</svg>
