<?xml version="1.0" encoding="utf-8"?>
<!-- Generator: Adobe Illustrator 24.1.0, SVG Export Plug-In . SVG Version: 6.00 Build 0)  -->
<svg version="1.1" id="Layer_1" xmlns="http://www.w3.org/2000/svg" xmlns:xlink="http://www.w3.org/1999/xlink" x="0px" y="0px"
	 viewBox="0 0 75 75" style="enable-background:new 0 0 75 75;" xml:space="preserve">
<style type="text/css">
	.st0{fill:url(#SVGID_1_);}
</style>
<linearGradient id="SVGID_1_" gradientUnits="userSpaceOnUse" x1="37.5" y1="60.8826" x2="37.5" y2="14.1174">
	<stop  offset="0" style="stop-color:#7847E7"/>
	<stop  offset="0.499" style="stop-color:#F63A8E"/>
	<stop  offset="1" style="stop-color:#FFC754"/>
</linearGradient>
<path class="st0" d="M45.5,37.5c0,4.4-3.6,8-8,8s-8-3.6-8-8s3.6-8,8-8S45.5,33.1,45.5,37.5z M60.9,25.4v24.2
	c0,6.2-5.1,11.3-11.3,11.3H25.4c-6.2,0-11.3-5.1-11.3-11.3V25.4c0-6.2,5.1-11.3,11.3-11.3h24.2C55.8,14.1,60.9,19.2,60.9,25.4z
	 M51.3,37.5c0-7.6-6.2-13.8-13.8-13.8s-13.8,6.2-13.8,13.8c0,7.6,6.2,13.8,13.8,13.8S51.3,45.1,51.3,37.5z M56.4,22.6
	c0-2.2-1.8-3.9-3.9-3.9c-2.2,0-3.9,1.8-3.9,3.9c0,2.2,1.8,3.9,3.9,3.9C54.6,26.5,56.4,24.7,56.4,22.6z"/>
</svg>
