<?xml version="1.0" encoding="utf-8"?>
<!-- Generator: Adobe Illustrator 24.1.0, SVG Export Plug-In . SVG Version: 6.00 Build 0)  -->
<svg version="1.1" id="Layer_1" xmlns="http://www.w3.org/2000/svg" xmlns:xlink="http://www.w3.org/1999/xlink" x="0px" y="0px"
	 viewBox="0 0 75 75" style="enable-background:new 0 0 75 75;" xml:space="preserve">
<style type="text/css">
	.st0{fill:#007CBC;}
</style>
<g>
	<g>
		<circle class="st0" cx="20.8" cy="20.3" r="6.1"/>
		<path class="st0" d="M23.9,60.8h-6.3c-1.1,0-1.9-0.9-1.9-1.9V32.3c0-1.1,0.9-1.9,1.9-1.9h6.3c1.1,0,1.9,0.9,1.9,1.9v26.5
			C25.8,59.9,25,60.8,23.9,60.8z"/>
		<path class="st0" d="M60.2,41.5v17.2c0,1.1-0.9,2-2,2h-6.1c-1.1,0-2-0.9-2-2V44.6c0-2.8-2.3-5.1-5.1-5.1c-2.8,0-5.1,2.3-5.1,5.1
			v14.2c0,1.1-0.9,2-2,2h-6.1c-1.1,0-2-0.9-2-2V32.4c0-1.1,0.9-2,2-2H38c1.1,0,2,0.9,2,2v1.3c2-2.6,5.4-4.3,9.1-4.3
			C54.7,29.4,60.2,33.5,60.2,41.5z"/>
	</g>
</g>
</svg>
