<?xml version="1.0" encoding="utf-8"?>
<!-- Generator: Adobe Illustrator 24.1.0, SVG Export Plug-In . SVG Version: 6.00 Build 0)  -->
<svg version="1.1" id="Layer_1" xmlns="http://www.w3.org/2000/svg" x="0px" y="0px"
     viewBox="0 0 75 75" style="enable-background:new 0 0 75 75;" xml:space="preserve">
<style type="text/css">
	.st0{fill:#F11B26;}
</style>
<g>
	<path class="st0" d="M25.8,67.6c1-0.9,4.9-5,7-13.5l1.6-6.5c1.5,1.5,3.5,2.6,5.7,3.1c8.8,2.2,17.2-7.2,19.4-16.2
		c3.1-12.6-3.3-23.7-14-26.3c-12.3-3-26.7,3-30.3,17.4c-1.2,5.1-0.8,12.7,6,16.4c0.7,0.4,1.6,0,1.8-0.8l1-3.9
		c0.1-0.5-0.1-0.9-0.4-1.2c-2.4-2.2-3-5.8-2.2-9.2C23.8,17,33.8,13,42.3,15.1c7.4,1.8,11.9,9.4,9.8,17.9
		c-1.5,6.1-5.7,12.8-11.8,11.3c-3.6-0.9-4.1-4.5-3.1-8.5l2.2-9.1c0.6-2.4-0.9-4.7-3.2-5.3c-2.4-0.6-6.1,1.1-7.3,6
		c-0.7,2.8-0.1,5.1,1,6.6l-4.5,18.3c-2.1,8.4-0.5,13.9,0,15.2"/>
</g>
</svg>
