<svg xmlns="http://www.w3.org/2000/svg" id="Layer_1" x="0" y="0" version="1.1" viewBox="0 0 75 75" style="enable-background:new 0 0 75 75" xml:space="preserve"><style type="text/css">.st0{fill:#150029}</style><g><path d="M46.5,49.2V26.7c0,0,2.5,4.2,11.7,4.5c0.5,0,0.9-0.4,0.9-0.9V24c0-0.5-0.4-0.8-0.9-0.9 c-7.1-0.4-10.5-5.9-10.8-10.9c0-0.5-0.4-0.8-0.9-0.8h-7.2c-0.5,0-0.9,0.4-0.9,0.9V48c0,3.9-3,7.3-6.8,7.4c-4.4,0.2-8-3.6-7.5-8.1 c0.4-3.2,2.9-5.8,6.1-6.2c0.6-0.1,1.2-0.1,1.8,0c0.5,0.1,1-0.3,1-0.9l0-6.4c0-0.5-0.3-0.8-0.8-0.9c-0.9-0.1-1.8,0-2.8,0.1 c-7,0.8-12.6,6.5-13.4,13.4c-1,9.2,6.2,17,15.2,17c8.4,0,15.3-6.8,15.3-15.3" class="st0"/></g></svg>