<?xml version="1.0" encoding="utf-8"?>
<!-- Generator: Adobe Illustrator 24.1.0, SVG Export Plug-In . SVG Version: 6.00 Build 0)  -->
<svg version="1.1" id="Layer_1" xmlns="http://www.w3.org/2000/svg" xmlns:xlink="http://www.w3.org/1999/xlink" x="0px" y="0px"
	 viewBox="0 0 75 75" style="enable-background:new 0 0 75 75;" xml:space="preserve">
<style type="text/css">
	.st0{fill:#9840EF;}
</style>
<g>
	<g>
		<path class="st0" d="M59.6,9.7H23.9c-0.5,0-1,0.2-1.4,0.6l-8.5,8.5c-0.4,0.4-0.6,0.8-0.6,1.4v33.7c0,1.1,0.9,1.9,1.9,1.9H26v8.7
			c0,0.8,1,1.3,1.6,0.7l9.3-9.3h6.5c0.5,0,1-0.2,1.4-0.6L60.9,39c0.4-0.4,0.6-0.8,0.6-1.4V11.6C61.5,10.5,60.6,9.7,59.6,9.7z
			 M59.9,36.5c0,0.9-0.3,1.7-0.9,2.3l-5.8,5.8c-0.6,0.6-1.4,0.9-2.3,0.9h-7.6l-6.1,6.1c-0.5,0.5-1.2,0.8-2,0.8
			c-1.6,0-2.8-1.3-2.8-2.8v-4.1H26c-1.8,0-3.2-1.5-3.2-3.2V14.5c0-1.8,1.5-3.2,3.2-3.2h30.7c1.8,0,3.2,1.5,3.2,3.2V36.5z"/>
		<path class="st0" d="M56.7,13.5H26c-0.5,0-1,0.4-1,1v27.8c0,0.5,0.4,1,1,1h8.6v6.3c0,0.5,0.6,0.7,1,0.4l6.7-6.7h8.6
			c0.3,0,0.5-0.1,0.7-0.3l5.8-5.8c0.2-0.2,0.3-0.4,0.3-0.7v-22C57.6,13.9,57.2,13.5,56.7,13.5z M40.4,31.5c0,0.1-0.1,0.2-0.2,0.2
			h-3.4c-0.1,0-0.2-0.1-0.2-0.2V20.5c0-0.1,0.1-0.2,0.2-0.2h3.4c0.1,0,0.2,0.1,0.2,0.2V31.5z M51.9,31.5c0,0.1-0.1,0.2-0.2,0.2h-3.4
			c-0.1,0-0.2-0.1-0.2-0.2V20.5c0-0.1,0.1-0.2,0.2-0.2h3.4c0.1,0,0.2,0.1,0.2,0.2V31.5z"/>
	</g>
</g>
</svg>
