<svg width="20" height="20" viewBox="0 0 20 20" fill="none" xmlns="http://www.w3.org/2000/svg">
<g clip-path="url(#clip0_11507_3049)">
<path d="M2.5 17.4999V14.1666C2.5 13.5073 2.6955 12.8629 3.06177 12.3147C3.42804 11.7665 3.94864 11.3393 4.55772 11.087C5.16681 10.8347 5.83703 10.7687 6.48363 10.8973C7.13024 11.0259 7.72418 11.3434 8.19036 11.8096C8.65653 12.2757 8.974 12.8697 9.10262 13.5163C9.23124 14.1629 9.16522 14.8331 8.91293 15.4422C8.66064 16.0513 8.2334 16.5719 7.68523 16.9382C7.13707 17.3044 6.4926 17.4999 5.83333 17.4999H2.5Z" stroke="black" stroke-width="1.5" stroke-linecap="round" stroke-linejoin="round"/>
<path d="M17.5002 2.5C15.1217 2.82533 12.8751 3.78679 10.9977 5.28287C9.12027 6.77895 7.68158 8.75416 6.8335 11" stroke="black" stroke-width="1.5" stroke-linecap="round" stroke-linejoin="round"/>
<path d="M17.5 2.5C17.1747 4.87849 16.2132 7.12502 14.7171 9.00245C13.221 10.8799 11.2458 12.3186 9 13.1667" stroke="black" stroke-width="1.5" stroke-linecap="round" stroke-linejoin="round"/>
<path d="M8.8335 7.5C10.4528 8.24739 11.7528 9.54736 12.5002 11.1667" stroke="black" stroke-width="1.5" stroke-linecap="round" stroke-linejoin="round"/>
</g>
<defs>
<clipPath id="clip0_11507_3049">
<rect width="20" height="20" fill="white"/>
</clipPath>
</defs>
</svg>
