<svg width="20" height="20" viewBox="0 0 20 20" fill="none" xmlns="http://www.w3.org/2000/svg">
<g clip-path="url(#clip0_11607_1559)">
<path d="M3.33398 5.83329C3.33398 5.39127 3.50958 4.96734 3.82214 4.65478C4.1347 4.34222 4.55862 4.16663 5.00065 4.16663H15.0007C15.4427 4.16663 15.8666 4.34222 16.1792 4.65478C16.4917 4.96734 16.6673 5.39127 16.6673 5.83329V15.8333C16.6673 16.2753 16.4917 16.6992 16.1792 17.0118C15.8666 17.3244 15.4427 17.5 15.0007 17.5H5.00065C4.55862 17.5 4.1347 17.3244 3.82214 17.0118C3.50958 16.6992 3.33398 16.2753 3.33398 15.8333V5.83329Z" stroke="#747474" stroke-width="1.5" stroke-linecap="round" stroke-linejoin="round"/>
<path d="M13.334 2.5V5.83333" stroke="#747474" stroke-width="1.5" stroke-linecap="round" stroke-linejoin="round"/>
<path d="M6.66602 2.5V5.83333" stroke="#747474" stroke-width="1.5" stroke-linecap="round" stroke-linejoin="round"/>
<path d="M3.33398 9.16663H16.6673" stroke="#747474" stroke-width="1.5" stroke-linecap="round" stroke-linejoin="round"/>
<path d="M9.16602 13.3333C9.16602 13.5543 9.25381 13.7663 9.41009 13.9226C9.56637 14.0789 9.77834 14.1667 9.99935 14.1667C10.2204 14.1667 10.4323 14.0789 10.5886 13.9226C10.7449 13.7663 10.8327 13.5543 10.8327 13.3333C10.8327 13.1123 10.7449 12.9004 10.5886 12.7441C10.4323 12.5878 10.2204 12.5 9.99935 12.5C9.77834 12.5 9.56637 12.5878 9.41009 12.7441C9.25381 12.9004 9.16602 13.1123 9.16602 13.3333Z" stroke="#747474" stroke-width="1.5" stroke-linecap="round" stroke-linejoin="round"/>
</g>
<defs>
<clipPath id="clip0_11607_1559">
<rect width="20" height="20" fill="white"/>
</clipPath>
</defs>
</svg>
