<svg width="40" height="40" viewBox="0 0 40 40" fill="none" xmlns="http://www.w3.org/2000/svg">
<g clip-path="url(#clip0_12106_4964)">
<path d="M25 13.3334H25.0167" stroke="#ADBAC7" stroke-width="2.5" stroke-linecap="round" stroke-linejoin="round"/>
<path d="M5 10C5 8.67392 5.52678 7.40215 6.46447 6.46447C7.40215 5.52678 8.67392 5 10 5H30C31.3261 5 32.5979 5.52678 33.5355 6.46447C34.4732 7.40215 35 8.67392 35 10V30C35 31.3261 34.4732 32.5979 33.5355 33.5355C32.5979 34.4732 31.3261 35 30 35H10C8.67392 35 7.40215 34.4732 6.46447 33.5355C5.52678 32.5979 5 31.3261 5 30V10Z" stroke="#ADBAC7" stroke-width="2.5" stroke-linecap="round" stroke-linejoin="round"/>
<path d="M5 26.6666L13.3333 18.3333C14.88 16.845 16.7867 16.845 18.3333 18.3333L26.6667 26.6666" stroke="#ADBAC7" stroke-width="2.5" stroke-linecap="round" stroke-linejoin="round"/>
<path d="M23.333 23.3333L24.9997 21.6667C26.5463 20.1783 28.453 20.1783 29.9997 21.6667L34.9997 26.6667" stroke="#ADBAC7" stroke-width="2.5" stroke-linecap="round" stroke-linejoin="round"/>
</g>
<defs>
<clipPath id="clip0_12106_4964">
<rect width="40" height="40" fill="white"/>
</clipPath>
</defs>
</svg>
