<svg width="22" height="22" viewBox="0 0 22 22" fill="none" xmlns="http://www.w3.org/2000/svg">
<g clip-path="url(#clip0_11581_4671)">
<path d="M3.66602 6.41669H18.3327" stroke="#B50518" stroke-width="2" stroke-linecap="round" stroke-linejoin="round"/>
<path d="M9.16602 10.0833V15.5833" stroke="#B50518" stroke-width="2" stroke-linecap="round" stroke-linejoin="round"/>
<path d="M12.834 10.0833V15.5833" stroke="#B50518" stroke-width="2" stroke-linecap="round" stroke-linejoin="round"/>
<path d="M4.58398 6.41669L5.50065 17.4167C5.50065 17.9029 5.69381 18.3692 6.03762 18.713C6.38144 19.0569 6.84775 19.25 7.33398 19.25H14.6673C15.1535 19.25 15.6199 19.0569 15.9637 18.713C16.3075 18.3692 16.5007 17.9029 16.5007 17.4167L17.4173 6.41669" stroke="#B50518" stroke-width="2" stroke-linecap="round" stroke-linejoin="round"/>
<path d="M8.25 6.41667V3.66667C8.25 3.42355 8.34658 3.19039 8.51849 3.01849C8.69039 2.84658 8.92355 2.75 9.16667 2.75H12.8333C13.0764 2.75 13.3096 2.84658 13.4815 3.01849C13.6534 3.19039 13.75 3.42355 13.75 3.66667V6.41667" stroke="#B50518" stroke-width="2" stroke-linecap="round" stroke-linejoin="round"/>
</g>
<defs>
<clipPath id="clip0_11581_4671">
<rect width="22" height="22" fill="white"/>
</clipPath>
</defs>
</svg>
