<svg width="346" height="346" viewBox="0 0 346 346" fill="none" xmlns="http://www.w3.org/2000/svg">
<path d="M11.7015 15.1375L11.7015 335.187M330.862 16.0265L10.8125 16.0265M330.862 87.1487L10.8125 87.1487M330.862 158.271L10.8125 158.271M330.862 229.393L10.8125 229.393M330.862 300.515L10.8125 300.515M330.862 51.5876L10.8125 51.5876M330.862 122.71L10.8125 122.71M330.862 193.832L10.8125 193.832M330.862 264.954L10.8125 264.954M330.862 336.076L10.8125 336.076M82.8238 15.1375L82.8238 335.187M47.2627 15.1375L47.2627 335.187M118.385 15.1375L118.385 335.187M153.946 15.1375L153.946 335.187M225.068 15.1375L225.068 335.187M189.507 15.1375L189.507 335.187M260.629 15.1375L260.629 335.187M296.19 15.1375L296.19 335.187M331.752 15.1375L331.751 335.187" stroke="#D5DFF0" stroke-width="1.77806"/>
<rect width="346" height="346" fill="url(#paint0_radial_3597_3886)"/>
<g filter="url(#filter0_dii_3597_3886)">
<circle cx="173" cy="173" r="80" fill="url(#paint1_linear_3597_3886)"/>
</g>
<path d="M164.503 170.166C164.503 172.421 165.398 174.583 166.992 176.177C168.586 177.771 170.748 178.666 173.003 178.666C175.257 178.666 177.419 177.771 179.013 176.177C180.607 174.583 181.503 172.421 181.503 170.166C181.503 167.912 180.607 165.75 179.013 164.156C177.419 162.562 175.257 161.666 173.003 161.666C170.748 161.666 168.586 162.562 166.992 164.156C165.398 165.75 164.503 167.912 164.503 170.166Z" stroke="#AAADBF" stroke-width="4.5" stroke-linecap="round" stroke-linejoin="round"/>
<path d="M189.031 186.194L177.009 198.216C175.946 199.278 174.506 199.874 173.004 199.874C171.502 199.874 170.062 199.278 168.999 198.216L156.974 186.194C153.805 183.024 151.646 178.986 150.771 174.589C149.897 170.192 150.346 165.634 152.061 161.493C153.777 157.351 156.682 153.811 160.41 151.32C164.137 148.83 168.52 147.5 173.003 147.5C177.486 147.5 181.868 148.83 185.595 151.32C189.323 153.811 192.228 157.351 193.944 161.493C195.659 165.634 196.108 170.192 195.234 174.589C194.359 178.986 192.201 183.024 189.031 186.194Z" stroke="#AAADBF" stroke-width="4.5" stroke-linecap="round" stroke-linejoin="round"/>
<defs>
<filter id="filter0_dii_3597_3886" x="72" y="84" width="202" height="202" filterUnits="userSpaceOnUse" color-interpolation-filters="sRGB">
<feFlood flood-opacity="0" result="BackgroundImageFix"/>
<feColorMatrix in="SourceAlpha" type="matrix" values="0 0 0 0 0 0 0 0 0 0 0 0 0 0 0 0 0 0 127 0" result="hardAlpha"/>
<feMorphology radius="3" operator="erode" in="SourceAlpha" result="effect1_dropShadow_3597_3886"/>
<feOffset dy="12"/>
<feGaussianBlur stdDeviation="12"/>
<feComposite in2="hardAlpha" operator="out"/>
<feColorMatrix type="matrix" values="0 0 0 0 0.375 0 0 0 0 0.375 0 0 0 0 0.375 0 0 0 0.1 0"/>
<feBlend mode="normal" in2="BackgroundImageFix" result="effect1_dropShadow_3597_3886"/>
<feBlend mode="normal" in="SourceGraphic" in2="effect1_dropShadow_3597_3886" result="shape"/>
<feColorMatrix in="SourceAlpha" type="matrix" values="0 0 0 0 0 0 0 0 0 0 0 0 0 0 0 0 0 0 127 0" result="hardAlpha"/>
<feOffset dy="-5"/>
<feGaussianBlur stdDeviation="2"/>
<feComposite in2="hardAlpha" operator="arithmetic" k2="-1" k3="1"/>
<feColorMatrix type="matrix" values="0 0 0 0 0.711563 0 0 0 0 0.750131 0 0 0 0 0.825 0 0 0 0.16 0"/>
<feBlend mode="normal" in2="shape" result="effect2_innerShadow_3597_3886"/>
<feColorMatrix in="SourceAlpha" type="matrix" values="0 0 0 0 0 0 0 0 0 0 0 0 0 0 0 0 0 0 127 0" result="hardAlpha"/>
<feOffset dy="4"/>
<feGaussianBlur stdDeviation="2"/>
<feComposite in2="hardAlpha" operator="arithmetic" k2="-1" k3="1"/>
<feColorMatrix type="matrix" values="0 0 0 0 0.709804 0 0 0 0 0.74902 0 0 0 0 0.823529 0 0 0 0.12 0"/>
<feBlend mode="normal" in2="effect2_innerShadow_3597_3886" result="effect3_innerShadow_3597_3886"/>
</filter>
<radialGradient id="paint0_radial_3597_3886" cx="0" cy="0" r="1" gradientUnits="userSpaceOnUse" gradientTransform="translate(173 173) rotate(90) scale(287.613)">
<stop offset="0.211669" stop-color="white" stop-opacity="0"/>
<stop offset="0.557276" stop-color="white"/>
</radialGradient>
<linearGradient id="paint1_linear_3597_3886" x1="173" y1="16" x2="173" y2="493" gradientUnits="userSpaceOnUse">
<stop offset="0.28034" stop-color="white"/>
<stop offset="0.683009" stop-color="#DCDEF8"/>
</linearGradient>
</defs>
</svg>
