<svg width="18" height="18" viewBox="0 0 18 18" fill="none" xmlns="http://www.w3.org/2000/svg">
<g clip-path="url(#clip0_11607_1140)">
<path d="M9 9C9 9.59674 9.23705 10.169 9.65901 10.591C10.081 11.0129 10.6533 11.25 11.25 11.25C11.8467 11.25 12.419 11.0129 12.841 10.591C13.2629 10.169 13.5 9.59674 13.5 9C13.5 8.40326 13.2629 7.83097 12.841 7.40901C12.419 6.98705 11.8467 6.75 11.25 6.75C10.6533 6.75 10.081 6.98705 9.65901 7.40901C9.23705 7.83097 9 8.40326 9 9Z" stroke="black" stroke-width="1.5" stroke-linecap="round" stroke-linejoin="round"/>
<path d="M4.5 4.5C4.5 3.90326 4.73705 3.33097 5.15901 2.90901C5.58097 2.48705 6.15326 2.25 6.75 2.25H11.25C11.8467 2.25 12.419 2.48705 12.841 2.90901C13.2629 3.33097 13.5 3.90326 13.5 4.5C13.5 5.09674 13.2629 5.66903 12.841 6.09099C12.419 6.51295 11.8467 6.75 11.25 6.75H6.75C6.15326 6.75 5.58097 6.51295 5.15901 6.09099C4.73705 5.66903 4.5 5.09674 4.5 4.5Z" stroke="black" stroke-width="1.5" stroke-linecap="round" stroke-linejoin="round"/>
<path d="M6.75 6.75C6.15326 6.75 5.58097 6.98705 5.15901 7.40901C4.73705 7.83097 4.5 8.40326 4.5 9C4.5 9.59674 4.73705 10.169 5.15901 10.591C5.58097 11.0129 6.15326 11.25 6.75 11.25M6.75 11.25H9M6.75 11.25C6.30499 11.25 5.86998 11.382 5.49997 11.6292C5.12996 11.8764 4.84157 12.2278 4.67127 12.639C4.50097 13.0501 4.45642 13.5025 4.54323 13.939C4.63005 14.3754 4.84434 14.7763 5.15901 15.091C5.47368 15.4057 5.87459 15.62 6.31105 15.7068C6.74751 15.7936 7.1999 15.749 7.61104 15.5787C8.02217 15.4084 8.37357 15.12 8.62081 14.75C8.86804 14.38 9 13.945 9 13.5V2.25" stroke="black" stroke-width="1.5" stroke-linecap="round" stroke-linejoin="round"/>
</g>
<defs>
<clipPath id="clip0_11607_1140">
<rect width="18" height="18" fill="white"/>
</clipPath>
</defs>
</svg>
