<svg width="42" height="42" viewBox="0 0 42 42" fill="none" xmlns="http://www.w3.org/2000/svg">
<rect width="42" height="42" rx="21" fill="#6287B1"/>
<g clip-path="url(#clip0_12322_10250)">
<path d="M18.25 27.4166C14.3083 28.7 14.3083 25.125 12.75 24.6666M23.75 29.25V26.0416C23.75 25.125 23.8417 24.7583 23.2917 24.2083C25.8583 23.9333 28.3333 22.925 28.3333 18.7083C28.3322 17.6128 27.9048 16.5608 27.1417 15.775C27.4996 14.8234 27.4666 13.7689 27.05 12.8416C27.05 12.8416 26.0417 12.5666 23.8417 14.0333C21.9783 13.548 20.0217 13.548 18.1583 14.0333C15.9583 12.5666 14.95 12.8416 14.95 12.8416C14.5334 13.7689 14.5004 14.8234 14.8583 15.775C14.0952 16.5608 13.6678 17.6128 13.6667 18.7083C13.6667 22.925 16.1417 23.9333 18.7083 24.2083C18.1583 24.7583 18.1583 25.3083 18.25 26.0416V29.25" stroke="white" stroke-width="1.5" stroke-linecap="round" stroke-linejoin="round"/>
</g>
<defs>
<clipPath id="clip0_12322_10250">
<rect width="22" height="22" fill="white" transform="translate(10 10)"/>
</clipPath>
</defs>
</svg>
