<svg width="451" height="190" viewBox="0 0 451 190" fill="none" xmlns="http://www.w3.org/2000/svg">
<g clip-path="url(#clip0_3597_3886)">
<circle cx="223" cy="134" r="42" fill="#F4F5F6"/>
<circle cx="223" cy="134" r="70.5" stroke="#F4F5F6"/>
<circle cx="223" cy="134" r="101.5" stroke="#F4F5F6"/>
<circle cx="223" cy="134" r="133.5" stroke="#F4F5F6"/>
<path d="M227.003 146.515C224.286 147.479 221.717 147.427 219.069 146.485C219.069 147.768 219.058 148.967 219.071 150.167C219.09 151.959 219.006 152.004 217.309 152.171C215.031 152.396 212.951 153.222 210.968 154.321C210.547 154.555 210.077 154.675 209.776 154.252C209.577 153.974 209.494 153.515 209.561 153.177C209.611 152.923 209.95 152.675 210.215 152.52C212.323 151.292 214.599 150.544 217.114 150.223C217.114 149.186 217.055 148.147 217.13 147.119C217.209 146.045 216.878 145.369 215.982 144.651C212.737 142.053 211.004 138.618 210.892 134.418C210.887 134.233 210.886 134.047 210.875 133.862C210.872 133.822 210.838 133.784 210.8 133.706C209.792 133.994 208.778 134.284 207.711 134.589C207.711 134.992 207.711 135.384 207.711 135.775C207.707 140.044 207.703 144.313 207.697 148.581C207.697 148.812 207.766 149.115 207.65 149.26C207.411 149.554 207.085 149.921 206.76 149.959C206.483 149.991 206.096 149.653 205.876 149.383C205.729 149.202 205.762 148.853 205.762 148.578C205.76 142.662 205.625 136.742 205.802 130.831C206.019 123.556 210.727 116.877 217.892 114.363C225.259 111.777 233.319 115.165 237.416 121.835C239.303 124.909 240.276 128.244 240.264 131.87C240.244 137.415 240.266 142.959 240.262 148.504C240.262 148.801 240.298 149.186 240.136 149.374C239.897 149.651 239.491 149.948 239.164 149.939C238.883 149.932 238.548 149.549 238.359 149.254C238.228 149.05 238.29 148.714 238.29 148.436C238.287 144.097 238.287 139.76 238.287 135.421C238.287 135.191 238.287 134.962 238.287 134.708C237.238 134.468 236.229 134.237 235.218 134.005C235.096 134.982 235.025 135.948 234.849 136.894C234.2 140.365 232.368 143.1 229.539 145.172C229.078 145.51 228.874 145.852 228.895 146.429C228.938 147.679 228.908 148.931 228.908 150.198C229.903 150.414 230.854 150.53 231.74 150.834C233.05 151.284 234.314 151.863 235.594 152.399C235.784 152.478 235.966 152.597 236.12 152.734C236.547 153.115 236.715 153.589 236.384 154.096C236.052 154.603 235.608 154.603 235.05 154.365C233.458 153.687 231.855 153.03 230.222 152.46C229.535 152.22 228.767 152.191 228.031 152.116C227.353 152.048 227.026 151.705 227.021 151.038C227.013 149.808 227.009 148.58 227.004 147.35C227.003 147.102 227.003 146.855 227.003 146.515ZM221.396 123.412C220.9 124.317 220.45 125.257 219.897 126.132C218.24 128.754 215.964 130.732 213.35 132.358C213.105 132.511 212.845 132.864 212.833 133.134C212.68 136.59 213.775 139.604 216.137 142.146C219.596 145.871 225.125 146.346 228.868 143.172C231.71 140.762 233.16 137.656 233.225 133.909C233.234 133.39 233.073 133.14 232.6 132.924C229.053 131.301 225.944 129.079 223.433 126.071C222.722 125.22 222.08 124.31 221.396 123.412ZM207.72 132.573C210.136 131.993 212.183 130.891 214.055 129.454C216.843 127.314 218.981 124.687 219.971 121.253C220.088 120.847 219.989 120.365 219.935 119.925C219.87 119.401 219.68 118.885 219.668 118.364C219.655 117.778 220.057 117.504 220.633 117.519C221.203 117.535 221.384 117.934 221.55 118.405C221.966 119.582 222.26 120.842 222.896 121.892C226.17 127.297 230.951 130.746 237.026 132.422C237.411 132.528 237.82 132.553 238.253 132.622C238.272 132.373 238.292 132.237 238.292 132.1C238.299 127.351 236.702 123.242 233.332 119.874C228.988 115.532 223.046 114.274 217.585 116.589C213.867 118.165 211.195 120.895 209.412 124.491C208.163 127.011 207.635 129.694 207.72 132.573Z" fill="black"/>
</g>
<rect x="24" y="28" width="120" height="42" rx="21" fill="#6287B1"/>
<circle cx="45" cy="49" r="17" fill="white"/>
<g clip-path="url(#clip1_3597_3886)">
<path d="M42.25 55.4166C38.3083 56.7 38.3083 53.125 36.75 52.6666M47.75 57.25V54.0416C47.75 53.125 47.8417 52.7583 47.2917 52.2083C49.8583 51.9333 52.3333 50.925 52.3333 46.7083C52.3322 45.6128 51.9048 44.5608 51.1417 43.775C51.4996 42.8234 51.4666 41.7689 51.05 40.8416C51.05 40.8416 50.0417 40.5666 47.8417 42.0333C45.9783 41.548 44.0217 41.548 42.1583 42.0333C39.9583 40.5666 38.95 40.8416 38.95 40.8416C38.5334 41.7689 38.5004 42.8234 38.8583 43.775C38.0952 44.5608 37.6678 45.6128 37.6667 46.7083C37.6667 50.925 40.1417 51.9333 42.7083 52.2083C42.1583 52.7583 42.1583 53.3083 42.25 54.0416V57.25" stroke="#6287B1" stroke-width="1.5" stroke-linecap="round" stroke-linejoin="round"/>
</g>
<path d="M79.8253 47.0696C79.7424 46.8011 79.6281 46.5608 79.4822 46.3487C79.3397 46.1333 79.1674 45.9493 78.9652 45.7969C78.7663 45.6444 78.5376 45.5301 78.2791 45.4538C78.0206 45.3743 77.7389 45.3345 77.4339 45.3345C76.8871 45.3345 76.3999 45.4721 75.9723 45.7472C75.5447 46.0223 75.2083 46.4266 74.9631 46.9602C74.7211 47.4905 74.6001 48.1368 74.6001 48.8991C74.6001 49.6681 74.7211 50.3194 74.9631 50.853C75.205 51.3866 75.5414 51.7926 75.9723 52.071C76.4032 52.3461 76.9036 52.4837 77.4737 52.4837C77.9908 52.4837 78.4382 52.3842 78.8161 52.1854C79.1972 51.9865 79.4905 51.7048 79.696 51.3402C79.9015 50.9723 80.0043 50.5414 80.0043 50.0476L80.4219 50.1122H77.6577V48.6705H81.7891V49.8935C81.7891 50.7652 81.6035 51.5192 81.2322 52.1555C80.861 52.7919 80.3506 53.2824 79.701 53.6271C79.0514 53.9685 78.3056 54.1392 77.4638 54.1392C76.5258 54.1392 75.7022 53.9287 74.9929 53.5078C74.2869 53.0836 73.7351 52.482 73.3374 51.7031C72.9429 50.9209 72.7457 49.9929 72.7457 48.919C72.7457 48.0971 72.8617 47.3629 73.0938 46.7166C73.3291 46.0703 73.6572 45.5218 74.0781 45.071C74.4991 44.617 74.9929 44.2723 75.5597 44.0369C76.1264 43.7983 76.7429 43.679 77.4091 43.679C77.9725 43.679 78.4979 43.7618 78.9851 43.9276C79.4723 44.09 79.9048 44.322 80.2827 44.6236C80.6638 44.9252 80.977 45.2831 81.2223 45.6974C81.4676 46.1117 81.6283 46.5691 81.7045 47.0696H79.8253ZM83.9716 54V46.3636H85.7713V54H83.9716ZM84.8764 45.2798C84.5914 45.2798 84.3461 45.1854 84.1406 44.9964C83.9351 44.8042 83.8324 44.5739 83.8324 44.3054C83.8324 44.0336 83.9351 43.8033 84.1406 43.6143C84.3461 43.4221 84.5914 43.326 84.8764 43.326C85.1648 43.326 85.41 43.4221 85.6122 43.6143C85.8177 43.8033 85.9205 44.0336 85.9205 44.3054C85.9205 44.5739 85.8177 44.8042 85.6122 44.9964C85.41 45.1854 85.1648 45.2798 84.8764 45.2798ZM91.4352 46.3636V47.7557H87.0453V46.3636H91.4352ZM88.1291 44.5341H89.9288V51.7031C89.9288 51.9451 89.9653 52.1307 90.0382 52.2599C90.1144 52.3859 90.2138 52.4721 90.3365 52.5185C90.4591 52.5649 90.595 52.5881 90.7441 52.5881C90.8568 52.5881 90.9596 52.5798 91.0524 52.5632C91.1485 52.5466 91.2214 52.5317 91.2711 52.5185L91.5744 53.9254C91.4783 53.9586 91.3407 53.995 91.1618 54.0348C90.9861 54.0746 90.7707 54.0978 90.5154 54.1044C90.0647 54.1177 89.6587 54.0497 89.2974 53.9006C88.9361 53.7481 88.6494 53.5128 88.4373 53.1946C88.2285 52.8764 88.1258 52.4787 88.1291 52.0014V44.5341ZM93.1839 54V43.8182H95.0284V48.1286H99.7464V43.8182H101.596V54H99.7464V49.6747H95.0284V54H93.1839ZM108.39 50.7884V46.3636H110.189V54H108.444V52.6428H108.365C108.192 53.0703 107.909 53.42 107.515 53.6918C107.123 53.9635 106.641 54.0994 106.068 54.0994C105.567 54.0994 105.125 53.9884 104.74 53.7663C104.359 53.541 104.061 53.2145 103.846 52.7869C103.63 52.3561 103.522 51.8357 103.522 51.2259V46.3636H105.322V50.9474C105.322 51.4313 105.455 51.8158 105.72 52.1009C105.985 52.3859 106.333 52.5284 106.764 52.5284C107.029 52.5284 107.286 52.4638 107.534 52.3345C107.783 52.2053 107.987 52.013 108.146 51.7578C108.308 51.4993 108.39 51.1761 108.39 50.7884ZM112.119 54V43.8182H113.919V47.6264H113.994C114.087 47.4408 114.218 47.2436 114.387 47.0348C114.556 46.8227 114.784 46.642 115.073 46.4929C115.361 46.3404 115.729 46.2642 116.176 46.2642C116.766 46.2642 117.298 46.415 117.772 46.7166C118.249 47.0149 118.627 47.4574 118.906 48.044C119.187 48.6274 119.328 49.3433 119.328 50.1918C119.328 51.0303 119.191 51.7429 118.916 52.3295C118.641 52.9162 118.266 53.3636 117.792 53.6719C117.318 53.9801 116.781 54.1342 116.181 54.1342C115.744 54.1342 115.381 54.0613 115.093 53.9155C114.804 53.7696 114.572 53.594 114.396 53.3885C114.224 53.1797 114.09 52.9825 113.994 52.7969H113.889V54H112.119ZM113.884 50.1818C113.884 50.6757 113.954 51.1082 114.093 51.4794C114.236 51.8506 114.44 52.1406 114.705 52.3494C114.973 52.5549 115.298 52.6577 115.679 52.6577C116.077 52.6577 116.41 52.5516 116.678 52.3395C116.947 52.1241 117.149 51.8307 117.285 51.4595C117.424 51.085 117.494 50.6591 117.494 50.1818C117.494 49.7079 117.426 49.2869 117.29 48.919C117.154 48.5511 116.952 48.2628 116.683 48.054C116.415 47.8452 116.08 47.7408 115.679 47.7408C115.295 47.7408 114.968 47.8419 114.7 48.044C114.431 48.2462 114.227 48.5296 114.088 48.8942C113.952 49.2588 113.884 49.688 113.884 50.1818Z" fill="white"/>
<rect x="331" y="116" width="120" height="42" rx="21" fill="#6287B1"/>
<circle cx="352" cy="137" r="17" fill="white"/>
<g clip-path="url(#clip2_3597_3886)">
<path d="M348.668 132.833C348.668 133.717 349.019 134.565 349.644 135.19C350.269 135.815 351.117 136.167 352.001 136.167C352.885 136.167 353.733 135.815 354.358 135.19C354.983 134.565 355.335 133.717 355.335 132.833C355.335 131.949 354.983 131.101 354.358 130.476C353.733 129.851 352.885 129.5 352.001 129.5C351.117 129.5 350.269 129.851 349.644 130.476C349.019 131.101 348.668 131.949 348.668 132.833Z" stroke="#6287B1" stroke-width="1.5" stroke-linecap="round" stroke-linejoin="round"/>
<path d="M347 144.5V142.833C347 141.949 347.351 141.101 347.976 140.476C348.601 139.851 349.449 139.5 350.333 139.5H350.75" stroke="#6287B1" stroke-width="1.5" stroke-linecap="round" stroke-linejoin="round"/>
<path d="M356.833 144.347L355.023 145.296C354.969 145.324 354.908 145.336 354.848 145.332C354.788 145.327 354.73 145.306 354.681 145.271C354.631 145.235 354.593 145.187 354.57 145.131C354.547 145.075 354.54 145.014 354.549 144.954L354.895 142.945L353.431 141.522C353.387 141.48 353.356 141.427 353.342 141.368C353.327 141.309 353.329 141.247 353.348 141.189C353.367 141.131 353.402 141.08 353.448 141.041C353.495 141.002 353.552 140.977 353.612 140.968L355.635 140.675L356.54 138.847C356.567 138.793 356.609 138.747 356.661 138.715C356.712 138.683 356.772 138.666 356.833 138.666C356.893 138.666 356.953 138.683 357.005 138.715C357.056 138.747 357.098 138.793 357.125 138.847L358.03 140.675L360.053 140.968C360.113 140.977 360.17 141.002 360.216 141.041C360.263 141.08 360.297 141.132 360.316 141.189C360.335 141.247 360.337 141.309 360.323 141.368C360.308 141.426 360.278 141.48 360.234 141.522L358.77 142.945L359.115 144.953C359.125 145.013 359.119 145.075 359.096 145.131C359.073 145.187 359.035 145.236 358.986 145.272C358.936 145.307 358.878 145.329 358.817 145.333C358.757 145.337 358.696 145.324 358.643 145.296L356.833 144.347Z" stroke="#6287B1" stroke-width="1.5" stroke-linecap="round" stroke-linejoin="round"/>
</g>
<path d="M380.004 131.818H382.261L385.284 139.196H385.403L388.426 131.818H390.683V142H388.913V135.005H388.819L386.005 141.97H384.683L381.869 134.99H381.774V142H380.004V131.818ZM394.81 142.154C394.326 142.154 393.89 142.068 393.502 141.896C393.118 141.72 392.813 141.461 392.587 141.12C392.365 140.779 392.254 140.358 392.254 139.857C392.254 139.426 392.334 139.07 392.493 138.788C392.652 138.507 392.869 138.281 393.144 138.112C393.419 137.943 393.729 137.816 394.074 137.729C394.422 137.64 394.781 137.575 395.153 137.536C395.6 137.489 395.963 137.448 396.241 137.411C396.52 137.371 396.722 137.312 396.848 137.232C396.977 137.149 397.042 137.022 397.042 136.849V136.82C397.042 136.445 396.931 136.155 396.709 135.95C396.487 135.744 396.167 135.641 395.749 135.641C395.308 135.641 394.959 135.737 394.7 135.93C394.445 136.122 394.273 136.349 394.183 136.611L392.503 136.372C392.635 135.908 392.854 135.52 393.159 135.209C393.464 134.894 393.837 134.659 394.278 134.503C394.719 134.344 395.206 134.264 395.739 134.264C396.107 134.264 396.473 134.307 396.838 134.393C397.203 134.48 397.536 134.622 397.837 134.821C398.139 135.017 398.381 135.283 398.563 135.621C398.749 135.96 398.842 136.382 398.842 136.889V142H397.112V140.951H397.052C396.942 141.163 396.788 141.362 396.589 141.548C396.394 141.73 396.147 141.877 395.849 141.99C395.554 142.099 395.207 142.154 394.81 142.154ZM395.277 140.832C395.638 140.832 395.951 140.76 396.217 140.618C396.482 140.472 396.686 140.28 396.828 140.041C396.974 139.803 397.047 139.542 397.047 139.261V138.361C396.991 138.407 396.894 138.45 396.759 138.49C396.626 138.53 396.477 138.565 396.311 138.594C396.145 138.624 395.981 138.651 395.819 138.674C395.656 138.697 395.516 138.717 395.396 138.734C395.128 138.77 394.888 138.83 394.675 138.913C394.463 138.996 394.296 139.112 394.173 139.261C394.051 139.406 393.989 139.595 393.989 139.827C393.989 140.159 394.11 140.409 394.352 140.578C394.594 140.747 394.902 140.832 395.277 140.832ZM402.451 137.526V142H400.651V134.364H402.371V135.661H402.461C402.637 135.234 402.917 134.894 403.301 134.642C403.689 134.39 404.168 134.264 404.738 134.264C405.265 134.264 405.724 134.377 406.115 134.602C406.509 134.828 406.814 135.154 407.03 135.582C407.249 136.009 407.356 136.528 407.353 137.138V142H405.553V137.416C405.553 136.906 405.421 136.506 405.156 136.218C404.894 135.93 404.531 135.786 404.067 135.786C403.752 135.786 403.472 135.855 403.227 135.994C402.985 136.13 402.794 136.327 402.655 136.586C402.519 136.844 402.451 137.158 402.451 137.526ZM414.05 138.788V134.364H415.849V142H414.104V140.643H414.025C413.853 141.07 413.569 141.42 413.175 141.692C412.784 141.964 412.301 142.099 411.728 142.099C411.228 142.099 410.785 141.988 410.401 141.766C410.019 141.541 409.721 141.214 409.506 140.787C409.29 140.356 409.183 139.836 409.183 139.226V134.364H410.982V138.947C410.982 139.431 411.115 139.816 411.38 140.101C411.645 140.386 411.993 140.528 412.424 140.528C412.689 140.528 412.946 140.464 413.195 140.335C413.443 140.205 413.647 140.013 413.806 139.758C413.969 139.499 414.05 139.176 414.05 138.788ZM419.898 142.154C419.414 142.154 418.978 142.068 418.59 141.896C418.206 141.72 417.901 141.461 417.675 141.12C417.453 140.779 417.342 140.358 417.342 139.857C417.342 139.426 417.422 139.07 417.581 138.788C417.74 138.507 417.957 138.281 418.232 138.112C418.507 137.943 418.817 137.816 419.162 137.729C419.51 137.64 419.869 137.575 420.241 137.536C420.688 137.489 421.051 137.448 421.329 137.411C421.608 137.371 421.81 137.312 421.936 137.232C422.065 137.149 422.13 137.022 422.13 136.849V136.82C422.13 136.445 422.019 136.155 421.797 135.95C421.575 135.744 421.255 135.641 420.837 135.641C420.396 135.641 420.047 135.737 419.788 135.93C419.533 136.122 419.361 136.349 419.271 136.611L417.591 136.372C417.723 135.908 417.942 135.52 418.247 135.209C418.552 134.894 418.925 134.659 419.366 134.503C419.806 134.344 420.294 134.264 420.827 134.264C421.195 134.264 421.561 134.307 421.926 134.393C422.291 134.48 422.624 134.622 422.925 134.821C423.227 135.017 423.469 135.283 423.651 135.621C423.837 135.96 423.93 136.382 423.93 136.889V142H422.199V140.951H422.14C422.03 141.163 421.876 141.362 421.677 141.548C421.482 141.73 421.235 141.877 420.937 141.99C420.642 142.099 420.295 142.154 419.898 142.154ZM420.365 140.832C420.726 140.832 421.039 140.76 421.305 140.618C421.57 140.472 421.773 140.28 421.916 140.041C422.062 139.803 422.135 139.542 422.135 139.261V138.361C422.078 138.407 421.982 138.45 421.846 138.49C421.714 138.53 421.565 138.565 421.399 138.594C421.233 138.624 421.069 138.651 420.907 138.674C420.744 138.697 420.604 138.717 420.484 138.734C420.216 138.77 419.975 138.83 419.763 138.913C419.551 138.996 419.384 139.112 419.261 139.261C419.139 139.406 419.077 139.595 419.077 139.827C419.077 140.159 419.198 140.409 419.44 140.578C419.682 140.747 419.99 140.832 420.365 140.832ZM427.539 131.818V142H425.739V131.818H427.539Z" fill="white"/>
<defs>
<clipPath id="clip0_3597_3886">
<rect width="446" height="190" fill="white"/>
</clipPath>
<clipPath id="clip1_3597_3886">
<rect width="22" height="22" fill="white" transform="translate(34 38)"/>
</clipPath>
<clipPath id="clip2_3597_3886">
<rect width="20" height="20" fill="white" transform="translate(342 127)"/>
</clipPath>
</defs>
</svg>
