<svg width="40" height="24" viewBox="0 0 40 24" fill="none" xmlns="http://www.w3.org/2000/svg">
<rect x="0.5" y="0.5" width="39" height="23" rx="11.5" stroke="black"/>
<g clip-path="url(#clip0_11605_464)">
<path d="M22.25 10.5L25.6647 8.79303C25.7791 8.7359 25.9061 8.70894 26.0337 8.71469C26.1614 8.72044 26.2855 8.75871 26.3942 8.82588C26.5029 8.89305 26.5927 8.98689 26.6549 9.09848C26.7172 9.21008 26.7499 9.33573 26.75 9.46353V14.5365C26.7499 14.6643 26.7172 14.79 26.6549 14.9016C26.5927 15.0132 26.5029 15.107 26.3942 15.1742C26.2855 15.2413 26.1614 15.2796 26.0337 15.2854C25.9061 15.2911 25.7791 15.2642 25.6647 15.207L22.25 13.5V10.5Z" stroke="black" stroke-width="1.5" stroke-linecap="round" stroke-linejoin="round"/>
<path d="M13.25 9C13.25 8.60218 13.408 8.22064 13.6893 7.93934C13.9706 7.65804 14.3522 7.5 14.75 7.5H20.75C21.1478 7.5 21.5294 7.65804 21.8107 7.93934C22.092 8.22064 22.25 8.60218 22.25 9V15C22.25 15.3978 22.092 15.7794 21.8107 16.0607C21.5294 16.342 21.1478 16.5 20.75 16.5H14.75C14.3522 16.5 13.9706 16.342 13.6893 16.0607C13.408 15.7794 13.25 15.3978 13.25 15V9Z" stroke="black" stroke-width="1.5" stroke-linecap="round" stroke-linejoin="round"/>
</g>
<defs>
<clipPath id="clip0_11605_464">
<rect width="18" height="18" fill="white" transform="translate(11 3)"/>
</clipPath>
</defs>
</svg>
