<svg width="24" height="24" viewBox="0 0 24 24" fill="none" xmlns="http://www.w3.org/2000/svg">
<g clip-path="url(#clip0_12275_3321)">
<path d="M9 15L15 9" stroke="#747474" stroke-width="2" stroke-linecap="round" stroke-linejoin="round"/>
<path d="M11 6.00006L11.463 5.46406C12.4008 4.52639 13.6727 3.99966 14.9989 3.99976C16.325 3.99985 17.5968 4.52676 18.5345 5.46456C19.4722 6.40237 19.9989 7.67425 19.9988 9.00042C19.9987 10.3266 19.4718 11.5984 18.534 12.5361L18 13.0001" stroke="#747474" stroke-width="2" stroke-linecap="round" stroke-linejoin="round"/>
<path d="M13.0001 18L12.6031 18.534C11.6544 19.4722 10.3739 19.9984 9.03964 19.9984C7.70535 19.9984 6.42489 19.4722 5.47614 18.534C5.0085 18.0716 4.63724 17.521 4.38385 16.9141C4.13047 16.3073 4 15.6561 4 14.9985C4 14.3408 4.13047 13.6897 4.38385 13.0829C4.63724 12.476 5.0085 11.9254 5.47614 11.463L6.00014 11" stroke="#747474" stroke-width="2" stroke-linecap="round" stroke-linejoin="round"/>
</g>
<defs>
<clipPath id="clip0_12275_3321">
<rect width="24" height="24" fill="white"/>
</clipPath>
</defs>
</svg>
