<svg width="20" height="20" viewBox="0 0 20 20" fill="none" xmlns="http://www.w3.org/2000/svg">
<g clip-path="url(#clip0_11507_2998)">
<path d="M3.00326 5.99757L8.95159 3.40674C9.04974 3.36467 9.15533 3.34267 9.26211 3.34205C9.3689 3.34144 9.47473 3.3622 9.57337 3.40313C9.672 3.44406 9.76145 3.50433 9.83642 3.58037C9.9114 3.65641 9.97039 3.7467 10.0099 3.8459L14.1133 13.7642C14.1985 13.9654 14.2014 14.1919 14.1213 14.3952C14.0412 14.5984 13.8845 14.7621 13.6849 14.8509L7.73742 17.4417C7.63922 17.4839 7.53356 17.506 7.42668 17.5067C7.3198 17.5074 7.21387 17.4867 7.11514 17.4457C7.0164 17.4048 6.92688 17.3445 6.85184 17.2684C6.7768 17.1923 6.71778 17.1019 6.67826 17.0026L2.57492 7.0834C2.48963 6.88228 2.48673 6.65571 2.56684 6.45247C2.64696 6.24923 2.80367 6.0864 3.00326 5.99757Z" stroke="black" stroke-width="1.5" stroke-linecap="round" stroke-linejoin="round"/>
<path d="M12.5 3.33325H13.3333C13.5543 3.33325 13.7663 3.42105 13.9226 3.57733C14.0789 3.73361 14.1667 3.94557 14.1667 4.16659V7.08325" stroke="black" stroke-width="1.5" stroke-linecap="round" stroke-linejoin="round"/>
<path d="M16.6668 5C16.8868 5.09333 17.1002 5.18083 17.3068 5.2625C17.5103 5.34882 17.6711 5.51241 17.7539 5.71729C17.8367 5.92217 17.8348 6.15155 17.7485 6.355L15.8335 10.8333" stroke="black" stroke-width="1.5" stroke-linecap="round" stroke-linejoin="round"/>
</g>
<defs>
<clipPath id="clip0_11507_2998">
<rect width="20" height="20" fill="white"/>
</clipPath>
</defs>
</svg>
