<svg width="50" height="50" viewBox="0 0 50 50" fill="none" xmlns="http://www.w3.org/2000/svg">
<path d="M46.7801 31.723C46.4761 29.187 45.4611 26.7886 43.8523 24.8048C42.2435 22.821 40.1064 21.3327 37.6878 20.5116C35.2692 19.6905 32.6677 19.5702 30.1837 20.1645C27.6996 20.7589 25.4343 22.0436 23.6492 23.8704C21.8642 25.6972 20.6321 27.9916 20.0954 30.4887C19.5586 32.9859 19.739 35.5839 20.6158 37.9829C21.4925 40.3818 23.0298 42.4839 25.0503 44.0465C27.0707 45.609 29.4919 46.5683 32.0342 46.8136C32.4624 46.8532 32.8915 46.874 33.3186 46.874C35.3186 46.8755 37.2943 46.4348 39.104 45.5834C39.3435 45.4623 39.6181 45.4302 39.879 45.4928L43.0697 46.3771C43.4142 46.4729 43.7775 46.4783 44.1247 46.393C44.472 46.3076 44.7914 46.1343 45.0523 45.8898C45.3131 45.6452 45.5067 45.3377 45.6142 44.9967C45.7218 44.6557 45.7398 44.2927 45.6665 43.9428L44.9915 40.7396C44.9443 40.4698 44.9961 40.192 45.1374 39.9573C46.5475 37.4574 47.123 34.5726 46.7801 31.723Z" fill="#DC0D16"/>
<path d="M38.5395 39.5834C38.345 39.5845 38.1542 39.5311 37.9885 39.4293C37.8228 39.3275 37.6889 39.1813 37.602 39.0074L33.3312 30.4542L29.0603 39.0074C28.9368 39.2546 28.7202 39.4427 28.458 39.5302C28.1959 39.6177 27.9097 39.5975 27.6624 39.474C27.4152 39.3505 27.2271 39.1339 27.1396 38.8717C27.052 38.6096 27.0723 38.3234 27.1957 38.0761L32.4041 27.6595C32.5003 27.498 32.6368 27.3643 32.8003 27.2715C32.9637 27.1787 33.1484 27.1299 33.3364 27.1299C33.5243 27.1299 33.7091 27.1787 33.8725 27.2715C34.0359 27.3643 34.1724 27.498 34.2687 27.6595L39.477 38.0761C39.5566 38.2354 39.594 38.4124 39.5857 38.5902C39.5775 38.768 39.5238 38.9408 39.4297 39.0919C39.3357 39.2431 39.2045 39.3676 39.0487 39.4537C38.8928 39.5397 38.7175 39.5844 38.5395 39.5834Z" fill="white"/>
<path d="M29.6649 36.6167C29.3886 36.6193 29.1226 36.5121 28.9254 36.3186C28.7282 36.1251 28.616 35.8612 28.6133 35.5849C28.6107 35.3087 28.7179 35.0427 28.9114 34.8455C29.1049 34.6483 29.3688 34.536 29.6451 34.5334L36.9816 34.3969C37.2578 34.3918 37.5248 34.4966 37.7238 34.6884C37.9227 34.8801 38.0374 35.143 38.0425 35.4193C38.0476 35.6956 37.9428 35.9626 37.751 36.1615C37.5593 36.3605 37.2964 36.4751 37.0201 36.4802L29.6836 36.6167H29.6649Z" fill="white"/>
<path d="M28.0305 7.40732C26.4559 5.82652 24.5392 4.62867 22.4282 3.90623C20.3172 3.18378 18.0685 2.95606 15.8555 3.24065C13.4806 3.54363 11.2169 4.42698 9.26451 5.81263C7.3121 7.19828 5.73109 9.04354 4.66122 11.1853C3.59135 13.3271 3.06556 15.6995 3.13034 18.0928C3.19511 20.4861 3.84844 22.8265 5.0326 24.9073C5.17429 25.1395 5.22581 25.4157 5.17739 25.6834L4.40447 29.3594C4.33111 29.7092 4.34899 30.072 4.45638 30.413C4.56378 30.7539 4.75708 31.0614 5.0177 31.306C5.27832 31.5507 5.5975 31.7241 5.94453 31.8097C6.29156 31.8953 6.65478 31.8902 6.99926 31.7948L10.6524 30.7802C10.915 30.7155 11.1922 30.748 11.4326 30.8719C13.3945 31.8092 15.5417 32.2943 17.7159 32.2917C18.4533 32.2914 19.1896 32.2371 19.9191 32.1292C22.5833 31.7215 25.0825 30.5834 27.1391 28.8412C29.1956 27.0991 30.7292 24.8211 31.5695 22.2601C32.4097 19.6992 32.5239 16.9555 31.8991 14.3336C31.2744 11.7117 29.9353 9.31421 28.0305 7.40732Z" fill="#6287B1"/>
<path d="M17.707 23.9584C16.4709 23.9584 15.2625 23.5918 14.2347 22.9051C13.2069 22.2183 12.4058 21.2422 11.9328 20.1001C11.4597 18.9581 11.336 17.7014 11.5771 16.4891C11.8183 15.2767 12.4135 14.163 13.2876 13.289C14.1617 12.4149 15.2753 11.8196 16.4877 11.5785C17.7001 11.3373 18.9568 11.4611 20.0988 11.9341C21.2408 12.4072 22.217 13.2083 22.9037 14.2361C23.5905 15.2639 23.957 16.4722 23.957 17.7084C23.9554 19.3655 23.2964 20.9542 22.1246 22.126C20.9529 23.2977 19.3641 23.9567 17.707 23.9584ZM17.707 13.5417C16.8829 13.5417 16.0774 13.7861 15.3922 14.2439C14.707 14.7018 14.1729 15.3525 13.8575 16.1139C13.5422 16.8752 13.4597 17.713 13.6204 18.5213C13.7812 19.3295 14.178 20.0719 14.7608 20.6547C15.3435 21.2374 16.0859 21.6342 16.8942 21.795C17.7024 21.9558 18.5402 21.8732 19.3015 21.5579C20.0629 21.2425 20.7136 20.7085 21.1715 20.0233C21.6293 19.338 21.8737 18.5325 21.8737 17.7084C21.8737 16.6033 21.4347 15.5435 20.6533 14.7621C19.8719 13.9807 18.8121 13.5417 17.707 13.5417Z" fill="white"/>
<path d="M22.9143 25C22.638 25 22.3731 24.8902 22.1778 24.6948L18.0112 20.5281C17.8214 20.3317 17.7164 20.0686 17.7188 19.7954C17.7212 19.5223 17.8307 19.261 18.0238 19.0679C18.217 18.8748 18.4782 18.7652 18.7514 18.7629C19.0245 18.7605 19.2876 18.8655 19.4841 19.0552L23.6507 23.2219C23.7964 23.3676 23.8956 23.5532 23.9357 23.7552C23.9759 23.9572 23.9553 24.1666 23.8764 24.3569C23.7976 24.5473 23.6641 24.7099 23.4929 24.8244C23.3216 24.9389 23.1203 25 22.9143 25Z" fill="white"/>
</svg>
