<svg width="40" height="24" viewBox="0 0 40 24" fill="none" xmlns="http://www.w3.org/2000/svg">
<rect x="0.5" y="0.5" width="39" height="23" rx="11.5" stroke="black"/>
<g clip-path="url(#clip0_12832_4663)">
<path d="M15.7502 9H24.2544C24.4707 8.99997 24.6844 9.04672 24.8809 9.13703C25.0775 9.22733 25.2521 9.35907 25.393 9.5232C25.5338 9.68734 25.6375 9.87998 25.6969 10.0879C25.7563 10.2959 25.7701 10.5142 25.7372 10.728L24.7959 16.842C24.7142 17.3733 24.445 17.8579 24.0369 18.2078C23.6289 18.5578 23.109 18.7502 22.5714 18.75H17.4324C16.895 18.75 16.3753 18.5576 15.9674 18.2076C15.5595 17.8576 15.2904 17.3732 15.2087 16.842L14.2674 10.728C14.2346 10.5142 14.2483 10.2959 14.3077 10.0879C14.3671 9.87998 14.4708 9.68734 14.6116 9.5232C14.7525 9.35907 14.9271 9.22733 15.1237 9.13703C15.3202 9.04672 15.5339 8.99997 15.7502 9Z" stroke="black" stroke-width="1.5" stroke-linecap="round" stroke-linejoin="round"/>
<path d="M17.75 11.25V7.5C17.75 6.90326 17.9871 6.33097 18.409 5.90901C18.831 5.48705 19.4033 5.25 20 5.25C20.5967 5.25 21.169 5.48705 21.591 5.90901C22.0129 6.33097 22.25 6.90326 22.25 7.5V11.25" stroke="black" stroke-width="1.5" stroke-linecap="round" stroke-linejoin="round"/>
</g>
<defs>
<clipPath id="clip0_12832_4663">
<rect width="18" height="18" fill="white" transform="translate(11 3)"/>
</clipPath>
</defs>
</svg>
