<svg width="30" height="22" viewBox="0 0 30 22" fill="none" xmlns="http://www.w3.org/2000/svg">
<g clip-path="url(#clip0_11431_1768)">
<path d="M13.9512 14.8237H16.0774V19.6612H13.9512V14.8237Z" fill="url(#paint0_linear_11431_1768)"/>
<path d="M12.6113 21.7329C12.6113 20.4054 13.6857 19.3198 15.0132 19.3198C16.3407 19.3198 17.4151 20.4054 17.4151 21.7329H12.6113Z" fill="url(#paint1_linear_11431_1768)"/>
<path d="M17.2966 21.2438C17.156 21.2438 17.0322 21.1369 17.0153 20.9907C16.9985 20.8332 17.111 20.6982 17.2685 20.6813C17.3022 20.6757 19.3891 20.4394 21.3803 18.8532C24.0185 16.7494 25.3066 13.2113 25.0928 8.63257C25.0872 8.47507 25.2053 8.34569 25.3628 8.34007C25.5147 8.32882 25.6497 8.45257 25.6553 8.61007C25.7735 11.2707 25.4191 13.5882 24.5922 15.5007C23.9228 17.0419 22.9553 18.3244 21.7066 19.3144C19.5803 20.9963 17.4147 21.2382 17.3247 21.2438C17.3191 21.2438 17.3078 21.2438 17.2966 21.2438Z" fill="url(#paint2_linear_11431_1768)"/>
<path d="M27.5488 11.8987C26.5588 12.7199 25.1582 12.6581 25.1582 12.6581C25.1582 12.6581 25.3607 11.2687 26.3507 10.4474C27.3407 9.6262 28.7413 9.68807 28.7413 9.68807C28.7413 9.68807 28.5388 11.0774 27.5488 11.8987Z" fill="url(#paint3_linear_11431_1768)"/>
<path d="M24.5885 10.2121C25.3254 11.264 25.151 12.659 25.151 12.659C25.151 12.659 23.7842 12.344 23.0473 11.2921C22.3104 10.2402 22.4848 8.84521 22.4848 8.84521C22.4848 8.84521 23.8517 9.15459 24.5885 10.2121Z" fill="url(#paint4_linear_11431_1768)"/>
<path d="M23.837 13.2478C24.4839 14.3615 24.1914 15.734 24.1914 15.734C24.1914 15.734 22.8526 15.3009 22.2114 14.1928C21.5645 13.079 21.857 11.7065 21.857 11.7065C21.857 11.7065 23.1957 12.1397 23.837 13.2478Z" fill="url(#paint5_linear_11431_1768)"/>
<path d="M22.6069 16.1076C22.8656 17.3676 22.1513 18.577 22.1513 18.577C22.1513 18.577 21.0206 17.7445 20.7675 16.4845C20.5144 15.2245 21.2231 14.0151 21.2231 14.0151C21.2231 14.0151 22.3481 14.8476 22.6069 16.1076Z" fill="url(#paint6_linear_11431_1768)"/>
<path d="M20.6248 18.3751C20.3604 19.6351 19.2241 20.462 19.2241 20.462C19.2241 20.462 18.5154 19.247 18.7798 17.9926C19.0441 16.7383 20.1804 15.9058 20.1804 15.9058C20.1804 15.9058 20.8891 17.1151 20.6248 18.3751Z" fill="url(#paint7_linear_11431_1768)"/>
<path d="M26.642 15.2031C25.5788 15.9287 24.1895 15.7431 24.1895 15.7431C24.1895 15.7431 24.5157 14.3762 25.5788 13.6506C26.642 12.925 28.0313 13.1106 28.0313 13.1106C28.0313 13.1106 27.7051 14.4775 26.642 15.2031Z" fill="url(#paint8_linear_11431_1768)"/>
<path d="M24.6591 18.6036C23.461 19.0705 22.1504 18.5755 22.1504 18.5755C22.1504 18.5755 22.7804 17.3211 23.9785 16.8543C25.1766 16.3874 26.4873 16.8824 26.4873 16.8824C26.4873 16.8824 25.8573 18.1368 24.6591 18.6036Z" fill="url(#paint9_linear_11431_1768)"/>
<path d="M21.5213 21.4573C20.2332 21.4236 19.2207 20.4561 19.2207 20.4561C19.2207 20.4561 20.2895 19.5448 21.572 19.5786C22.8545 19.6123 23.8726 20.5798 23.8726 20.5798C23.8726 20.5798 22.8038 21.4911 21.5213 21.4573Z" fill="url(#paint10_linear_11431_1768)"/>
<path d="M26.3416 7.93959C26.3416 9.22772 25.4023 10.2683 25.4023 10.2683C25.4023 10.2683 24.4629 9.22772 24.4629 7.93959C24.4629 6.65147 25.4023 5.61084 25.4023 5.61084C25.4023 5.61084 26.3416 6.65709 26.3416 7.93959Z" fill="url(#paint11_linear_11431_1768)"/>
<path d="M12.7439 21.2438C12.8845 21.2438 13.0082 21.1369 13.0251 20.9907C13.042 20.8332 12.9295 20.6982 12.772 20.6813C12.7382 20.6757 10.6514 20.4394 8.66011 18.8532C6.02198 16.7494 4.73386 13.2113 4.94761 8.63257C4.95323 8.47507 4.83511 8.34569 4.67761 8.34007C4.52573 8.32882 4.39073 8.45257 4.38511 8.61007C4.26136 11.2651 4.62136 13.5882 5.44823 15.5007C6.11761 17.0419 7.08511 18.3244 8.33386 19.3144C10.4601 20.9963 12.6257 21.2382 12.7157 21.2438H12.7439Z" fill="url(#paint12_linear_11431_1768)"/>
<path d="M2.49914 11.8987C3.48914 12.7199 4.89539 12.6581 4.89539 12.6581C4.89539 12.6581 4.69289 11.2687 3.70289 10.4474C2.71289 9.6262 1.30664 9.68807 1.30664 9.68807C1.30664 9.68807 1.50914 11.0774 2.49914 11.8987Z" fill="url(#paint13_linear_11431_1768)"/>
<path d="M5.45354 10.2121C4.71667 11.264 4.89104 12.659 4.89104 12.659C4.89104 12.659 6.25792 12.344 6.99479 11.2921C7.73167 10.2402 7.55729 8.84521 7.55729 8.84521C7.55729 8.84521 6.19042 9.15459 5.45354 10.2121Z" fill="url(#paint14_linear_11431_1768)"/>
<path d="M6.21327 13.2478C5.57202 14.3615 5.85889 15.734 5.85889 15.734C5.85889 15.734 7.19764 15.3009 7.83889 14.1928C8.48014 13.0847 8.19327 11.7065 8.19327 11.7065C8.19327 11.7065 6.85452 12.1397 6.21327 13.2478Z" fill="url(#paint15_linear_11431_1768)"/>
<path d="M7.44905 16.1076C7.1903 17.3676 7.90467 18.577 7.90467 18.577C7.90467 18.577 9.0353 17.7445 9.29405 16.4845C9.5528 15.2245 8.83842 14.0151 8.83842 14.0151C8.83842 14.0151 7.7078 14.8476 7.44905 16.1076Z" fill="url(#paint16_linear_11431_1768)"/>
<path d="M9.4204 18.3751C9.68477 19.6351 10.821 20.462 10.821 20.462C10.821 20.462 11.5298 19.247 11.2654 17.9926C11.001 16.7383 9.86477 15.9058 9.86477 15.9058C9.86477 15.9058 9.15602 17.1151 9.4204 18.3751Z" fill="url(#paint17_linear_11431_1768)"/>
<path d="M3.40305 15.2031C4.46617 15.9287 5.85555 15.7431 5.85555 15.7431C5.85555 15.7431 5.5293 14.3762 4.46617 13.6506C3.40305 12.925 2.01367 13.1106 2.01367 13.1106C2.01367 13.1106 2.33992 14.4775 3.40305 15.2031Z" fill="url(#paint18_linear_11431_1768)"/>
<path d="M5.38305 18.6036C6.58117 19.0705 7.8918 18.5755 7.8918 18.5755C7.8918 18.5755 7.2618 17.3211 6.0693 16.8543C4.87117 16.3874 3.56055 16.8824 3.56055 16.8824C3.56055 16.8824 4.18492 18.1368 5.38305 18.6036Z" fill="url(#paint19_linear_11431_1768)"/>
<path d="M8.51727 21.4573C9.80539 21.4236 10.8179 20.4561 10.8179 20.4561C10.8179 20.4561 9.74914 19.5448 8.46664 19.5786C7.18414 19.6123 6.16602 20.5798 6.16602 20.5798C6.16602 20.5798 7.23477 21.4911 8.51727 21.4573Z" fill="url(#paint20_linear_11431_1768)"/>
<path d="M3.70117 7.93959C3.70117 9.22772 4.64055 10.2683 4.64055 10.2683C4.64055 10.2683 5.57992 9.22772 5.57992 7.93959C5.57992 6.65147 4.64055 5.61084 4.64055 5.61084C4.64055 5.61084 3.70117 6.65709 3.70117 7.93959Z" fill="url(#paint21_linear_11431_1768)"/>
<path d="M15.0176 15.6284C18.9785 15.6284 22.1895 12.4175 22.1895 8.45654C22.1895 4.49563 18.9785 1.28467 15.0176 1.28467C11.0567 1.28467 7.8457 4.49563 7.8457 8.45654C7.8457 12.4175 11.0567 15.6284 15.0176 15.6284Z" fill="url(#paint22_linear_11431_1768)"/>
<path d="M15.0176 13.8003C17.9688 13.8003 20.3613 11.4078 20.3613 8.45654C20.3613 5.50527 17.9688 3.11279 15.0176 3.11279C12.0663 3.11279 9.67383 5.50527 9.67383 8.45654C9.67383 11.4078 12.0663 13.8003 15.0176 13.8003Z" fill="url(#paint23_linear_11431_1768)"/>
<path d="M12.9155 11.9808V10.9851L14.1699 10.8276V6.36701L12.9043 6.35014V5.41639L15.863 4.92139V10.8276L17.1174 10.9851V11.9808H12.9155Z" fill="url(#paint24_linear_11431_1768)"/>
</g>
<defs>
<linearGradient id="paint0_linear_11431_1768" x1="15.0146" y1="19.6573" x2="15.0146" y2="14.8209" gradientUnits="userSpaceOnUse">
<stop stop-color="#FCD34F"/>
<stop offset="1" stop-color="#FF6A00"/>
</linearGradient>
<linearGradient id="paint1_linear_11431_1768" x1="15.0132" y1="19.3148" x2="15.0132" y2="21.7301" gradientUnits="userSpaceOnUse">
<stop stop-color="#FCD34F"/>
<stop offset="1" stop-color="#FF6A00"/>
</linearGradient>
<linearGradient id="paint2_linear_11431_1768" x1="21.3489" y1="8.33855" x2="21.3489" y2="21.2466" gradientUnits="userSpaceOnUse">
<stop stop-color="#FF9900"/>
<stop offset="1" stop-color="#FCD34F"/>
</linearGradient>
<linearGradient id="paint3_linear_11431_1768" x1="26.9369" y1="12.6701" x2="26.9382" y2="9.70009" gradientUnits="userSpaceOnUse">
<stop stop-color="#FF9900"/>
<stop offset="1" stop-color="#FCD34F"/>
</linearGradient>
<linearGradient id="paint4_linear_11431_1768" x1="23.8154" y1="12.6817" x2="23.8163" y2="8.86856" gradientUnits="userSpaceOnUse">
<stop stop-color="#FF9900"/>
<stop offset="1" stop-color="#FCD34F"/>
</linearGradient>
<linearGradient id="paint5_linear_11431_1768" x1="22.9362" y1="15.6991" x2="23.0839" y2="11.7644" gradientUnits="userSpaceOnUse">
<stop stop-color="#FF9900"/>
<stop offset="1" stop-color="#FCD34F"/>
</linearGradient>
<linearGradient id="paint6_linear_11431_1768" x1="21.6878" y1="18.5665" x2="21.6861" y2="14.003" gradientUnits="userSpaceOnUse">
<stop stop-color="#FF9900"/>
<stop offset="1" stop-color="#FCD34F"/>
</linearGradient>
<linearGradient id="paint7_linear_11431_1768" x1="19.7173" y1="20.4491" x2="19.7159" y2="15.8911" gradientUnits="userSpaceOnUse">
<stop stop-color="#FF9900"/>
<stop offset="1" stop-color="#FCD34F"/>
</linearGradient>
<linearGradient id="paint8_linear_11431_1768" x1="26.0707" y1="15.8088" x2="26.1754" y2="13.0194" gradientUnits="userSpaceOnUse">
<stop stop-color="#FF9900"/>
<stop offset="1" stop-color="#FCD34F"/>
</linearGradient>
<linearGradient id="paint9_linear_11431_1768" x1="24.2938" y1="18.782" x2="24.294" y2="16.6287" gradientUnits="userSpaceOnUse">
<stop stop-color="#FF9900"/>
<stop offset="1" stop-color="#FCD34F"/>
</linearGradient>
<linearGradient id="paint10_linear_11431_1768" x1="21.5542" y1="21.4858" x2="21.5542" y2="19.603" gradientUnits="userSpaceOnUse">
<stop stop-color="#FF9900"/>
<stop offset="1" stop-color="#FCD34F"/>
</linearGradient>
<linearGradient id="paint11_linear_11431_1768" x1="25.3995" y1="10.2695" x2="25.3995" y2="5.61309" gradientUnits="userSpaceOnUse">
<stop stop-color="#FF9900"/>
<stop offset="1" stop-color="#FCD34F"/>
</linearGradient>
<linearGradient id="paint12_linear_11431_1768" x1="8.69211" y1="8.33855" x2="8.69211" y2="21.2466" gradientUnits="userSpaceOnUse">
<stop stop-color="#FF9900"/>
<stop offset="1" stop-color="#FCD34F"/>
</linearGradient>
<linearGradient id="paint13_linear_11431_1768" x1="3.1112" y1="12.6698" x2="3.10988" y2="9.69975" gradientUnits="userSpaceOnUse">
<stop stop-color="#FF9900"/>
<stop offset="1" stop-color="#FCD34F"/>
</linearGradient>
<linearGradient id="paint14_linear_11431_1768" x1="6.22607" y1="12.6814" x2="6.22521" y2="8.86828" gradientUnits="userSpaceOnUse">
<stop stop-color="#FF9900"/>
<stop offset="1" stop-color="#FCD34F"/>
</linearGradient>
<linearGradient id="paint15_linear_11431_1768" x1="7.11414" y1="15.6993" x2="6.96648" y2="11.7646" gradientUnits="userSpaceOnUse">
<stop stop-color="#FF9900"/>
<stop offset="1" stop-color="#FCD34F"/>
</linearGradient>
<linearGradient id="paint16_linear_11431_1768" x1="8.36898" y1="18.5668" x2="8.37066" y2="14.0033" gradientUnits="userSpaceOnUse">
<stop stop-color="#FF9900"/>
<stop offset="1" stop-color="#FCD34F"/>
</linearGradient>
<linearGradient id="paint17_linear_11431_1768" x1="10.3287" y1="20.4495" x2="10.3302" y2="15.8916" gradientUnits="userSpaceOnUse">
<stop stop-color="#FF9900"/>
<stop offset="1" stop-color="#FCD34F"/>
</linearGradient>
<linearGradient id="paint18_linear_11431_1768" x1="3.97418" y1="15.8092" x2="3.86956" y2="13.0197" gradientUnits="userSpaceOnUse">
<stop stop-color="#FF9900"/>
<stop offset="1" stop-color="#FCD34F"/>
</linearGradient>
<linearGradient id="paint19_linear_11431_1768" x1="5.74847" y1="18.7816" x2="5.74829" y2="16.6284" gradientUnits="userSpaceOnUse">
<stop stop-color="#FF9900"/>
<stop offset="1" stop-color="#FCD34F"/>
</linearGradient>
<linearGradient id="paint20_linear_11431_1768" x1="8.48481" y1="21.486" x2="8.48483" y2="19.6032" gradientUnits="userSpaceOnUse">
<stop stop-color="#FF9900"/>
<stop offset="1" stop-color="#FCD34F"/>
</linearGradient>
<linearGradient id="paint21_linear_11431_1768" x1="4.64336" y1="10.2695" x2="4.64336" y2="5.61309" gradientUnits="userSpaceOnUse">
<stop stop-color="#FF9900"/>
<stop offset="1" stop-color="#FCD34F"/>
</linearGradient>
<linearGradient id="paint22_linear_11431_1768" x1="15.0176" y1="15.6256" x2="15.0176" y2="1.28186" gradientUnits="userSpaceOnUse">
<stop stop-color="#FF9900"/>
<stop offset="0.11" stop-color="#FFA200"/>
<stop offset="0.37" stop-color="#FFB300"/>
<stop offset="0.65" stop-color="#FFBD00"/>
<stop offset="1" stop-color="#FFC100"/>
</linearGradient>
<linearGradient id="paint23_linear_11431_1768" x1="15.0176" y1="13.7975" x2="15.0176" y2="3.10998" gradientUnits="userSpaceOnUse">
<stop stop-color="#FFE187"/>
<stop offset="1" stop-color="#FFF8E0"/>
</linearGradient>
<linearGradient id="paint24_linear_11431_1768" x1="15.014" y1="11.9785" x2="15.014" y2="4.92307" gradientUnits="userSpaceOnUse">
<stop stop-color="#FD7600"/>
<stop offset="0.71" stop-color="#FDBF30"/>
</linearGradient>
<clipPath id="clip0_11431_1768">
<rect width="28.8" height="21.6" fill="white" transform="translate(0.599609 0.200684)"/>
</clipPath>
</defs>
</svg>
