<svg xmlns="http://www.w3.org/2000/svg" width="28" height="21" fill="none" viewBox="0 0 28 21"><path fill="url(#paint0_linear_11431_1813)" d="M12.9512 13.8237H15.0774V18.6612H12.9512V13.8237Z"/><path fill="url(#paint1_linear_11431_1813)" d="M11.6113 20.7329C11.6113 19.4054 12.6857 18.3198 14.0132 18.3198C15.3407 18.3198 16.4151 19.4054 16.4151 20.7329H11.6113Z"/><path fill="url(#paint2_linear_11431_1813)" d="M16.2966 20.2438C16.156 20.2438 16.0322 20.1369 16.0153 19.9907C15.9985 19.8332 16.111 19.6982 16.2685 19.6813C16.3022 19.6757 18.3891 19.4394 20.3803 17.8532C23.0185 15.7494 24.3066 12.2113 24.0928 7.63257C24.0872 7.47507 24.2053 7.34569 24.3628 7.34007C24.5147 7.32882 24.6497 7.45257 24.6553 7.61007C24.7735 10.2707 24.4191 12.5882 23.5922 14.5007C22.9228 16.0419 21.9553 17.3244 20.7066 18.3144C18.5803 19.9963 16.4147 20.2382 16.3247 20.2438C16.3191 20.2438 16.3078 20.2438 16.2966 20.2438Z"/><path fill="url(#paint3_linear_11431_1813)" d="M26.5488 10.8987C25.5588 11.7199 24.1582 11.6581 24.1582 11.6581C24.1582 11.6581 24.3607 10.2687 25.3507 9.44745C26.3407 8.6262 27.7413 8.68807 27.7413 8.68807C27.7413 8.68807 27.5388 10.0774 26.5488 10.8987Z"/><path fill="url(#paint4_linear_11431_1813)" d="M23.5885 9.21209C24.3254 10.264 24.151 11.659 24.151 11.659C24.151 11.659 22.7842 11.344 22.0473 10.2921C21.3104 9.24021 21.4848 7.84521 21.4848 7.84521C21.4848 7.84521 22.8517 8.15459 23.5885 9.21209Z"/><path fill="url(#paint5_linear_11431_1813)" d="M22.837 12.2478C23.4839 13.3615 23.1914 14.734 23.1914 14.734C23.1914 14.734 21.8526 14.3009 21.2114 13.1928C20.5645 12.079 20.857 10.7065 20.857 10.7065C20.857 10.7065 22.1957 11.1397 22.837 12.2478Z"/><path fill="url(#paint6_linear_11431_1813)" d="M21.6069 15.1076C21.8656 16.3676 21.1513 17.577 21.1513 17.577C21.1513 17.577 20.0206 16.7445 19.7675 15.4845C19.5144 14.2245 20.2231 13.0151 20.2231 13.0151C20.2231 13.0151 21.3481 13.8476 21.6069 15.1076Z"/><path fill="url(#paint7_linear_11431_1813)" d="M19.6248 17.3751C19.3604 18.6351 18.2241 19.462 18.2241 19.462C18.2241 19.462 17.5154 18.247 17.7798 16.9926C18.0441 15.7383 19.1804 14.9058 19.1804 14.9058C19.1804 14.9058 19.8891 16.1151 19.6248 17.3751Z"/><path fill="url(#paint8_linear_11431_1813)" d="M25.642 14.2031C24.5788 14.9287 23.1895 14.7431 23.1895 14.7431C23.1895 14.7431 23.5157 13.3762 24.5788 12.6506C25.642 11.925 27.0313 12.1106 27.0313 12.1106C27.0313 12.1106 26.7051 13.4775 25.642 14.2031Z"/><path fill="url(#paint9_linear_11431_1813)" d="M23.6591 17.6036C22.461 18.0705 21.1504 17.5755 21.1504 17.5755C21.1504 17.5755 21.7804 16.3211 22.9785 15.8543C24.1766 15.3874 25.4873 15.8824 25.4873 15.8824C25.4873 15.8824 24.8573 17.1368 23.6591 17.6036Z"/><path fill="url(#paint10_linear_11431_1813)" d="M20.5213 20.4573C19.2332 20.4236 18.2207 19.4561 18.2207 19.4561C18.2207 19.4561 19.2895 18.5448 20.572 18.5786C21.8545 18.6123 22.8726 19.5798 22.8726 19.5798C22.8726 19.5798 21.8038 20.4911 20.5213 20.4573Z"/><path fill="url(#paint11_linear_11431_1813)" d="M25.3416 6.93959C25.3416 8.22772 24.4023 9.26834 24.4023 9.26834C24.4023 9.26834 23.4629 8.22772 23.4629 6.93959C23.4629 5.65147 24.4023 4.61084 24.4023 4.61084C24.4023 4.61084 25.3416 5.65709 25.3416 6.93959Z"/><path fill="url(#paint12_linear_11431_1813)" d="M11.7439 20.2438C11.8845 20.2438 12.0082 20.1369 12.0251 19.9907C12.042 19.8332 11.9295 19.6982 11.772 19.6813C11.7382 19.6757 9.65136 19.4394 7.66011 17.8532C5.02198 15.7494 3.73386 12.2113 3.94761 7.63257C3.95323 7.47507 3.83511 7.34569 3.67761 7.34007C3.52573 7.32882 3.39073 7.45257 3.38511 7.61007C3.26136 10.2651 3.62136 12.5882 4.44823 14.5007C5.11761 16.0419 6.08511 17.3244 7.33386 18.3144C9.46011 19.9963 11.6257 20.2382 11.7157 20.2438H11.7439Z"/><path fill="url(#paint13_linear_11431_1813)" d="M1.49914 10.8987C2.48914 11.7199 3.89539 11.6581 3.89539 11.6581C3.89539 11.6581 3.69289 10.2687 2.70289 9.44745C1.71289 8.6262 0.306641 8.68807 0.306641 8.68807C0.306641 8.68807 0.509141 10.0774 1.49914 10.8987Z"/><path fill="url(#paint14_linear_11431_1813)" d="M4.45354 9.21209C3.71667 10.264 3.89104 11.659 3.89104 11.659C3.89104 11.659 5.25792 11.344 5.99479 10.2921C6.73167 9.24021 6.55729 7.84521 6.55729 7.84521C6.55729 7.84521 5.19042 8.15459 4.45354 9.21209Z"/><path fill="url(#paint15_linear_11431_1813)" d="M5.21327 12.2478C4.57202 13.3615 4.85889 14.734 4.85889 14.734C4.85889 14.734 6.19764 14.3009 6.83889 13.1928C7.48014 12.0847 7.19327 10.7065 7.19327 10.7065C7.19327 10.7065 5.85452 11.1397 5.21327 12.2478Z"/><path fill="url(#paint16_linear_11431_1813)" d="M6.44905 15.1076C6.1903 16.3676 6.90467 17.577 6.90467 17.577C6.90467 17.577 8.0353 16.7445 8.29405 15.4845C8.5528 14.2245 7.83842 13.0151 7.83842 13.0151C7.83842 13.0151 6.7078 13.8476 6.44905 15.1076Z"/><path fill="url(#paint17_linear_11431_1813)" d="M8.4204 17.3751C8.68477 18.6351 9.82102 19.462 9.82102 19.462C9.82102 19.462 10.5298 18.247 10.2654 16.9926C10.001 15.7383 8.86477 14.9058 8.86477 14.9058C8.86477 14.9058 8.15602 16.1151 8.4204 17.3751Z"/><path fill="url(#paint18_linear_11431_1813)" d="M2.40305 14.2031C3.46617 14.9287 4.85555 14.7431 4.85555 14.7431C4.85555 14.7431 4.5293 13.3762 3.46617 12.6506C2.40305 11.925 1.01367 12.1106 1.01367 12.1106C1.01367 12.1106 1.33992 13.4775 2.40305 14.2031Z"/><path fill="url(#paint19_linear_11431_1813)" d="M4.38305 17.6036C5.58117 18.0705 6.8918 17.5755 6.8918 17.5755C6.8918 17.5755 6.2618 16.3211 5.0693 15.8543C3.87117 15.3874 2.56055 15.8824 2.56055 15.8824C2.56055 15.8824 3.18492 17.1368 4.38305 17.6036Z"/><path fill="url(#paint20_linear_11431_1813)" d="M7.51727 20.4573C8.80539 20.4236 9.81789 19.4561 9.81789 19.4561C9.81789 19.4561 8.74914 18.5448 7.46664 18.5786C6.18414 18.6123 5.16602 19.5798 5.16602 19.5798C5.16602 19.5798 6.23477 20.4911 7.51727 20.4573Z"/><path fill="url(#paint21_linear_11431_1813)" d="M2.70117 6.93959C2.70117 8.22772 3.64055 9.26834 3.64055 9.26834C3.64055 9.26834 4.57992 8.22772 4.57992 6.93959C4.57992 5.65147 3.64055 4.61084 3.64055 4.61084C3.64055 4.61084 2.70117 5.65709 2.70117 6.93959Z"/><path fill="url(#paint22_linear_11431_1813)" d="M14.0176 14.6284C17.9785 14.6284 21.1895 11.4175 21.1895 7.45654C21.1895 3.49563 17.9785 0.284668 14.0176 0.284668C10.0567 0.284668 6.8457 3.49563 6.8457 7.45654C6.8457 11.4175 10.0567 14.6284 14.0176 14.6284Z"/><path fill="url(#paint23_linear_11431_1813)" d="M14.0176 12.8003C16.9688 12.8003 19.3613 10.4078 19.3613 7.45654C19.3613 4.50527 16.9688 2.11279 14.0176 2.11279C11.0663 2.11279 8.67383 4.50527 8.67383 7.45654C8.67383 10.4078 11.0663 12.8003 14.0176 12.8003Z"/><path fill="url(#paint24_linear_11431_1813)" d="M11.5785 10.9419V9.85063L13.851 7.45437C14.0535 7.22375 14.2166 7.01563 14.3347 6.84125C14.4528 6.66688 14.5428 6.49813 14.5935 6.35188C14.6497 6.20563 14.6722 6.05938 14.6722 5.91875C14.6722 5.68813 14.6103 5.49687 14.4866 5.33375C14.3628 5.17062 14.1772 5.09188 13.9353 5.09188C13.6653 5.09188 13.4685 5.1875 13.3391 5.37313C13.2097 5.55875 13.1478 5.8175 13.1478 6.13813H11.4828L11.4716 6.11C11.4603 5.67125 11.556 5.2775 11.7528 4.92875C11.9497 4.57438 12.2366 4.29875 12.6135 4.09063C12.9903 3.8825 13.4291 3.78125 13.9353 3.78125C14.4416 3.78125 14.8803 3.87125 15.2403 4.04563C15.606 4.22 15.8816 4.4675 16.0785 4.78813C16.2753 5.10875 16.371 5.48 16.371 5.9075C16.371 6.2 16.3203 6.46438 16.2247 6.71187C16.1291 6.95938 15.966 7.21813 15.741 7.49375C15.516 7.76938 15.2178 8.10688 14.841 8.50063L13.7835 9.62563L13.7947 9.64813H15.1953L15.2685 9.06313H16.5397V10.9363L11.5785 10.9419Z"/><defs><linearGradient id="paint0_linear_11431_1813" x1="14.015" x2="14.015" y1="18.657" y2="13.821" gradientUnits="userSpaceOnUse"><stop stop-color="#FCD34F"/><stop offset="1" stop-color="#FF6A00"/></linearGradient><linearGradient id="paint1_linear_11431_1813" x1="14.013" x2="14.013" y1="18.315" y2="20.73" gradientUnits="userSpaceOnUse"><stop stop-color="#FCD34F"/><stop offset="1" stop-color="#FF6A00"/></linearGradient><linearGradient id="paint2_linear_11431_1813" x1="20.349" x2="20.349" y1="7.339" y2="20.247" gradientUnits="userSpaceOnUse"><stop stop-color="#F90"/><stop offset="1" stop-color="#FCD34F"/></linearGradient><linearGradient id="paint3_linear_11431_1813" x1="25.937" x2="25.938" y1="11.67" y2="8.7" gradientUnits="userSpaceOnUse"><stop stop-color="#F90"/><stop offset="1" stop-color="#FCD34F"/></linearGradient><linearGradient id="paint4_linear_11431_1813" x1="22.815" x2="22.816" y1="11.682" y2="7.869" gradientUnits="userSpaceOnUse"><stop stop-color="#F90"/><stop offset="1" stop-color="#FCD34F"/></linearGradient><linearGradient id="paint5_linear_11431_1813" x1="21.936" x2="22.084" y1="14.699" y2="10.764" gradientUnits="userSpaceOnUse"><stop stop-color="#F90"/><stop offset="1" stop-color="#FCD34F"/></linearGradient><linearGradient id="paint6_linear_11431_1813" x1="20.688" x2="20.686" y1="17.567" y2="13.003" gradientUnits="userSpaceOnUse"><stop stop-color="#F90"/><stop offset="1" stop-color="#FCD34F"/></linearGradient><linearGradient id="paint7_linear_11431_1813" x1="18.717" x2="18.716" y1="19.449" y2="14.891" gradientUnits="userSpaceOnUse"><stop stop-color="#F90"/><stop offset="1" stop-color="#FCD34F"/></linearGradient><linearGradient id="paint8_linear_11431_1813" x1="25.071" x2="25.175" y1="14.809" y2="12.019" gradientUnits="userSpaceOnUse"><stop stop-color="#F90"/><stop offset="1" stop-color="#FCD34F"/></linearGradient><linearGradient id="paint9_linear_11431_1813" x1="23.294" x2="23.294" y1="17.782" y2="15.629" gradientUnits="userSpaceOnUse"><stop stop-color="#F90"/><stop offset="1" stop-color="#FCD34F"/></linearGradient><linearGradient id="paint10_linear_11431_1813" x1="20.554" x2="20.554" y1="20.486" y2="18.603" gradientUnits="userSpaceOnUse"><stop stop-color="#F90"/><stop offset="1" stop-color="#FCD34F"/></linearGradient><linearGradient id="paint11_linear_11431_1813" x1="24.399" x2="24.399" y1="9.269" y2="4.613" gradientUnits="userSpaceOnUse"><stop stop-color="#F90"/><stop offset="1" stop-color="#FCD34F"/></linearGradient><linearGradient id="paint12_linear_11431_1813" x1="7.692" x2="7.692" y1="7.339" y2="20.247" gradientUnits="userSpaceOnUse"><stop stop-color="#F90"/><stop offset="1" stop-color="#FCD34F"/></linearGradient><linearGradient id="paint13_linear_11431_1813" x1="2.111" x2="2.11" y1="11.67" y2="8.7" gradientUnits="userSpaceOnUse"><stop stop-color="#F90"/><stop offset="1" stop-color="#FCD34F"/></linearGradient><linearGradient id="paint14_linear_11431_1813" x1="5.226" x2="5.225" y1="11.681" y2="7.868" gradientUnits="userSpaceOnUse"><stop stop-color="#F90"/><stop offset="1" stop-color="#FCD34F"/></linearGradient><linearGradient id="paint15_linear_11431_1813" x1="6.114" x2="5.966" y1="14.699" y2="10.765" gradientUnits="userSpaceOnUse"><stop stop-color="#F90"/><stop offset="1" stop-color="#FCD34F"/></linearGradient><linearGradient id="paint16_linear_11431_1813" x1="7.369" x2="7.371" y1="17.567" y2="13.003" gradientUnits="userSpaceOnUse"><stop stop-color="#F90"/><stop offset="1" stop-color="#FCD34F"/></linearGradient><linearGradient id="paint17_linear_11431_1813" x1="9.329" x2="9.33" y1="19.45" y2="14.892" gradientUnits="userSpaceOnUse"><stop stop-color="#F90"/><stop offset="1" stop-color="#FCD34F"/></linearGradient><linearGradient id="paint18_linear_11431_1813" x1="2.974" x2="2.87" y1="14.809" y2="12.02" gradientUnits="userSpaceOnUse"><stop stop-color="#F90"/><stop offset="1" stop-color="#FCD34F"/></linearGradient><linearGradient id="paint19_linear_11431_1813" x1="4.748" x2="4.748" y1="17.782" y2="15.628" gradientUnits="userSpaceOnUse"><stop stop-color="#F90"/><stop offset="1" stop-color="#FCD34F"/></linearGradient><linearGradient id="paint20_linear_11431_1813" x1="7.485" x2="7.485" y1="20.486" y2="18.603" gradientUnits="userSpaceOnUse"><stop stop-color="#F90"/><stop offset="1" stop-color="#FCD34F"/></linearGradient><linearGradient id="paint21_linear_11431_1813" x1="3.643" x2="3.643" y1="9.269" y2="4.613" gradientUnits="userSpaceOnUse"><stop stop-color="#F90"/><stop offset="1" stop-color="#FCD34F"/></linearGradient><linearGradient id="paint22_linear_11431_1813" x1="14.018" x2="14.018" y1="14.626" y2=".282" gradientUnits="userSpaceOnUse"><stop stop-color="#F90"/><stop offset=".11" stop-color="#FFA200"/><stop offset=".37" stop-color="#FFB300"/><stop offset=".65" stop-color="#FFBD00"/><stop offset="1" stop-color="#FFC100"/></linearGradient><linearGradient id="paint23_linear_11431_1813" x1="14.018" x2="14.018" y1="12.797" y2="2.11" gradientUnits="userSpaceOnUse"><stop stop-color="#FFE187"/><stop offset="1" stop-color="#FFF8E0"/></linearGradient><linearGradient id="paint24_linear_11431_1813" x1="14.009" x2="14.009" y1="10.94" y2="3.783" gradientUnits="userSpaceOnUse"><stop stop-color="#FD7600"/><stop offset=".71" stop-color="#FDBF30"/></linearGradient></defs></svg>