<svg width="28" height="21" viewBox="0 0 28 21" fill="none" xmlns="http://www.w3.org/2000/svg">
<path d="M12.9355 13.8291H15.0618V18.6666H12.9355V13.8291Z" fill="url(#paint0_linear_11431_1857)"/>
<path d="M11.5957 20.7366C11.5957 19.4091 12.6701 18.3235 13.9976 18.3235C15.3251 18.3235 16.3995 19.4091 16.3995 20.7366H11.5957Z" fill="url(#paint1_linear_11431_1857)"/>
<path d="M16.2771 20.2454C16.1364 20.2454 16.0127 20.1385 15.9958 19.9923C15.9789 19.8348 16.0914 19.6998 16.2489 19.6829C16.2827 19.6773 18.3696 19.441 20.3608 17.8548C22.9989 15.751 24.2871 12.2129 24.0733 7.63415C24.0677 7.47665 24.1858 7.34728 24.3433 7.34165C24.4952 7.3304 24.6302 7.45415 24.6358 7.61165C24.7539 10.2723 24.3996 12.5898 23.5727 14.5023C22.9033 16.0435 21.9358 17.326 20.6871 18.316C18.5608 19.9979 16.3952 20.2398 16.3052 20.2454C16.2996 20.2454 16.2883 20.2454 16.2771 20.2454Z" fill="url(#paint2_linear_11431_1857)"/>
<path d="M26.5254 10.9021C25.5354 11.7234 24.1348 11.6615 24.1348 11.6615C24.1348 11.6615 24.3373 10.2721 25.3273 9.45087C26.3173 8.62962 27.7179 8.69149 27.7179 8.69149C27.7179 8.69149 27.5154 10.0809 26.5254 10.9021Z" fill="url(#paint3_linear_11431_1857)"/>
<path d="M23.5651 9.21551C24.302 10.2674 24.1276 11.6624 24.1276 11.6624C24.1276 11.6624 22.7607 11.3474 22.0239 10.2955C21.287 9.24363 21.4614 7.84863 21.4614 7.84863C21.4614 7.84863 22.8282 8.15801 23.5651 9.21551Z" fill="url(#paint4_linear_11431_1857)"/>
<path d="M22.8174 12.2532C23.4643 13.3669 23.1718 14.7394 23.1718 14.7394C23.1718 14.7394 21.8331 14.3063 21.1918 13.1982C20.5449 12.0844 20.8374 10.7119 20.8374 10.7119C20.8374 10.7119 22.1762 11.145 22.8174 12.2532Z" fill="url(#paint5_linear_11431_1857)"/>
<path d="M21.5795 15.1111C21.8383 16.3711 21.1239 17.5804 21.1239 17.5804C21.1239 17.5804 19.9933 16.7479 19.7402 15.4879C19.487 14.2279 20.1958 13.0186 20.1958 13.0186C20.1958 13.0186 21.3208 13.8511 21.5795 15.1111Z" fill="url(#paint6_linear_11431_1857)"/>
<path d="M19.6091 17.3766C19.3448 18.6366 18.2085 19.4635 18.2085 19.4635C18.2085 19.4635 17.4998 18.2485 17.7641 16.9941C18.0285 15.7397 19.1648 14.9072 19.1648 14.9072C19.1648 14.9072 19.8735 16.1166 19.6091 17.3766Z" fill="url(#paint7_linear_11431_1857)"/>
<path d="M25.6224 14.2046C24.5593 14.9302 23.1699 14.7446 23.1699 14.7446C23.1699 14.7446 23.4962 13.3777 24.5593 12.6521C25.6224 11.9265 27.0118 12.1121 27.0118 12.1121C27.0118 12.1121 26.6855 13.479 25.6224 14.2046Z" fill="url(#paint8_linear_11431_1857)"/>
<path d="M23.6435 17.609C22.4454 18.0759 21.1348 17.5809 21.1348 17.5809C21.1348 17.5809 21.7648 16.3265 22.9629 15.8596C24.161 15.3928 25.4716 15.8878 25.4716 15.8878C25.4716 15.8878 24.8416 17.1421 23.6435 17.609Z" fill="url(#paint9_linear_11431_1857)"/>
<path d="M20.5096 20.4607C19.2215 20.427 18.209 19.4595 18.209 19.4595C18.209 19.4595 19.2777 18.5482 20.5602 18.582C21.8427 18.6157 22.8609 19.5832 22.8609 19.5832C22.8609 19.5832 21.7921 20.4945 20.5096 20.4607Z" fill="url(#paint10_linear_11431_1857)"/>
<path d="M25.3221 6.94301C25.3221 8.23113 24.3827 9.27176 24.3827 9.27176C24.3827 9.27176 23.4434 8.23113 23.4434 6.94301C23.4434 5.65488 24.3827 4.61426 24.3827 4.61426C24.3827 4.61426 25.3221 5.66051 25.3221 6.94301Z" fill="url(#paint11_linear_11431_1857)"/>
<path d="M11.7165 20.2472C11.8571 20.2472 11.9809 20.1404 11.9978 19.9941C12.0146 19.8366 11.9021 19.7016 11.7446 19.6847C11.7109 19.6791 9.62401 19.4429 7.63276 17.8566C4.99464 15.7529 3.70651 12.2147 3.92026 7.63598C3.92589 7.47848 3.80776 7.34911 3.65026 7.34348C3.49839 7.33223 3.36339 7.45598 3.35776 7.61348C3.23401 10.2685 3.59401 12.5916 4.42089 14.5041C5.09026 16.0454 6.05776 17.3279 7.30651 18.3179C9.43276 19.9997 11.5984 20.2416 11.6884 20.2472H11.7165Z" fill="url(#paint12_linear_11431_1857)"/>
<path d="M1.46789 10.9021C2.45789 11.7234 3.86414 11.6615 3.86414 11.6615C3.86414 11.6615 3.66164 10.2721 2.67164 9.45087C1.68164 8.62962 0.275391 8.69149 0.275391 8.69149C0.275391 8.69149 0.477891 10.0809 1.46789 10.9021Z" fill="url(#paint13_linear_11431_1857)"/>
<path d="M4.4262 9.21551C3.68932 10.2674 3.8637 11.6624 3.8637 11.6624C3.8637 11.6624 5.23057 11.3474 5.96745 10.2955C6.70432 9.24363 6.52995 7.84863 6.52995 7.84863C6.52995 7.84863 5.16307 8.15801 4.4262 9.21551Z" fill="url(#paint14_linear_11431_1857)"/>
<path d="M5.1703 12.2532C4.52905 13.3669 4.81592 14.7394 4.81592 14.7394C4.81592 14.7394 6.15468 14.3063 6.79592 13.1982C7.43718 12.09 7.1503 10.7119 7.1503 10.7119C7.1503 10.7119 5.81155 11.145 5.1703 12.2532Z" fill="url(#paint15_linear_11431_1857)"/>
<path d="M6.41389 15.1111C6.15514 16.3711 6.86952 17.5804 6.86952 17.5804C6.86952 17.5804 8.00014 16.7479 8.25889 15.4879C8.51764 14.2279 7.80327 13.0186 7.80327 13.0186C7.80327 13.0186 6.67264 13.8511 6.41389 15.1111Z" fill="url(#paint16_linear_11431_1857)"/>
<path d="M8.38524 17.3766C8.64962 18.6366 9.78587 19.4635 9.78587 19.4635C9.78587 19.4635 10.4946 18.2485 10.2302 16.9941C9.96587 15.7397 8.82962 14.9072 8.82962 14.9072C8.82962 14.9072 8.12087 16.1166 8.38524 17.3766Z" fill="url(#paint17_linear_11431_1857)"/>
<path d="M2.3718 14.2046C3.43492 14.9302 4.8243 14.7446 4.8243 14.7446C4.8243 14.7446 4.49805 13.3777 3.43492 12.6521C2.3718 11.9265 0.982422 12.1121 0.982422 12.1121C0.982422 12.1121 1.30867 13.479 2.3718 14.2046Z" fill="url(#paint18_linear_11431_1857)"/>
<path d="M4.3518 17.609C5.54992 18.0759 6.86055 17.5809 6.86055 17.5809C6.86055 17.5809 6.23055 16.3265 5.03805 15.8596C3.83992 15.3928 2.5293 15.8878 2.5293 15.8878C2.5293 15.8878 3.15367 17.1421 4.3518 17.609Z" fill="url(#paint19_linear_11431_1857)"/>
<path d="M7.48602 20.4607C8.77414 20.427 9.78664 19.4595 9.78664 19.4595C9.78664 19.4595 8.71789 18.5482 7.43539 18.582C6.15289 18.6157 5.13477 19.5832 5.13477 19.5832C5.13477 19.5832 6.20352 20.4945 7.48602 20.4607Z" fill="url(#paint20_linear_11431_1857)"/>
<path d="M2.66992 6.94301C2.66992 8.23113 3.6093 9.27176 3.6093 9.27176C3.6093 9.27176 4.54867 8.23113 4.54867 6.94301C4.54867 5.65488 3.6093 4.61426 3.6093 4.61426C3.6093 4.61426 2.66992 5.66051 2.66992 6.94301Z" fill="url(#paint21_linear_11431_1857)"/>
<path d="M13.9941 14.6318C17.9551 14.6318 21.166 11.4209 21.166 7.45996C21.166 3.49904 17.9551 0.288086 13.9941 0.288086C10.0332 0.288086 6.82227 3.49904 6.82227 7.45996C6.82227 11.4209 10.0332 14.6318 13.9941 14.6318Z" fill="url(#paint22_linear_11431_1857)"/>
<path d="M13.9941 12.8037C16.9454 12.8037 19.3379 10.4112 19.3379 7.45996C19.3379 4.50869 16.9454 2.11621 13.9941 2.11621C11.0429 2.11621 8.65039 4.50869 8.65039 7.45996C8.65039 10.4112 11.0429 12.8037 13.9941 12.8037Z" fill="url(#paint23_linear_11431_1857)"/>
<path d="M13.9609 11.0875C13.4997 11.0875 13.0722 11.0088 12.684 10.8457C12.2959 10.6825 11.9865 10.4519 11.7559 10.1425C11.5253 9.83316 11.4184 9.45066 11.424 9.00629L11.4297 8.97816H13.089C13.089 9.12441 13.1228 9.26504 13.1959 9.38879C13.269 9.51254 13.3703 9.61379 13.4997 9.68691C13.629 9.76004 13.7865 9.79941 13.9609 9.79941C14.2365 9.79941 14.4615 9.72066 14.6247 9.55754C14.7878 9.39441 14.8665 9.18629 14.8665 8.92754C14.8665 8.66879 14.7765 8.44379 14.6022 8.27504C14.4222 8.10629 14.1634 8.02191 13.8259 8.02191H13.1059V6.76754H13.8765C14.0678 6.76754 14.2309 6.73379 14.3603 6.66066C14.4897 6.59316 14.5909 6.49191 14.6584 6.36816C14.7259 6.24441 14.7597 6.09816 14.7597 5.93504C14.7597 5.70441 14.6922 5.50754 14.5515 5.36129C14.4109 5.21504 14.2197 5.13066 13.9609 5.13066C13.8147 5.13066 13.6853 5.15879 13.5728 5.22066C13.4603 5.28254 13.3703 5.36129 13.3028 5.46254C13.2353 5.56379 13.2015 5.68191 13.2015 5.81691H11.5478L11.5365 5.78879C11.5253 5.40066 11.6209 5.06316 11.8234 4.76504C12.0259 4.47254 12.3128 4.24191 12.684 4.07879C13.0553 3.91566 13.4715 3.83691 13.9384 3.83691C14.6922 3.83691 15.2997 4.01129 15.7609 4.36004C16.2222 4.70879 16.4528 5.19816 16.4528 5.83379C16.4528 6.18816 16.3628 6.48629 16.1715 6.73941C15.9859 6.99254 15.7103 7.20629 15.339 7.38066C15.7103 7.52129 16.0084 7.72941 16.2278 8.01066C16.4472 8.29191 16.5597 8.62941 16.5597 9.01754C16.5597 9.44504 16.4472 9.81629 16.2222 10.1313C15.9972 10.4407 15.6878 10.6825 15.294 10.8513C14.9059 11.0032 14.4615 11.0875 13.9609 11.0875Z" fill="url(#paint24_linear_11431_1857)"/>
<defs>
<linearGradient id="paint0_linear_11431_1857" x1="13.999" y1="18.6627" x2="13.999" y2="13.8263" gradientUnits="userSpaceOnUse">
<stop stop-color="#FD8533"/>
<stop offset="1" stop-color="#DE3909"/>
</linearGradient>
<linearGradient id="paint1_linear_11431_1857" x1="13.9976" y1="18.3184" x2="13.9976" y2="20.7338" gradientUnits="userSpaceOnUse">
<stop stop-color="#FD8533"/>
<stop offset="1" stop-color="#DE3909"/>
</linearGradient>
<linearGradient id="paint2_linear_11431_1857" x1="20.3294" y1="7.34013" x2="20.3294" y2="20.2482" gradientUnits="userSpaceOnUse">
<stop stop-color="#FF7100"/>
<stop offset="1" stop-color="#FCA543"/>
</linearGradient>
<linearGradient id="paint3_linear_11431_1857" x1="25.9134" y1="11.6736" x2="25.9148" y2="8.70351" gradientUnits="userSpaceOnUse">
<stop stop-color="#FF6300"/>
<stop offset="1" stop-color="#FFA700"/>
</linearGradient>
<linearGradient id="paint4_linear_11431_1857" x1="22.792" y1="11.6851" x2="22.7929" y2="7.87198" gradientUnits="userSpaceOnUse">
<stop stop-color="#FF6300"/>
<stop offset="1" stop-color="#FFA700"/>
</linearGradient>
<linearGradient id="paint5_linear_11431_1857" x1="21.9167" y1="14.7045" x2="22.0643" y2="10.7697" gradientUnits="userSpaceOnUse">
<stop stop-color="#FF6300"/>
<stop offset="1" stop-color="#FFA700"/>
</linearGradient>
<linearGradient id="paint6_linear_11431_1857" x1="20.6604" y1="17.5699" x2="20.6587" y2="13.0064" gradientUnits="userSpaceOnUse">
<stop stop-color="#FF6300"/>
<stop offset="1" stop-color="#FFA700"/>
</linearGradient>
<linearGradient id="paint7_linear_11431_1857" x1="18.7017" y1="19.4505" x2="18.7002" y2="14.8926" gradientUnits="userSpaceOnUse">
<stop stop-color="#FF6300"/>
<stop offset="1" stop-color="#FFA700"/>
</linearGradient>
<linearGradient id="paint8_linear_11431_1857" x1="25.0512" y1="14.8103" x2="25.1559" y2="12.0208" gradientUnits="userSpaceOnUse">
<stop stop-color="#FF6300"/>
<stop offset="1" stop-color="#FFA700"/>
</linearGradient>
<linearGradient id="paint9_linear_11431_1857" x1="23.2782" y1="17.7873" x2="23.2783" y2="15.6341" gradientUnits="userSpaceOnUse">
<stop stop-color="#FF6300"/>
<stop offset="1" stop-color="#FFA700"/>
</linearGradient>
<linearGradient id="paint10_linear_11431_1857" x1="20.5425" y1="20.4893" x2="20.5425" y2="18.6064" gradientUnits="userSpaceOnUse">
<stop stop-color="#FF6300"/>
<stop offset="1" stop-color="#FFA700"/>
</linearGradient>
<linearGradient id="paint11_linear_11431_1857" x1="24.3799" y1="9.27288" x2="24.3799" y2="4.61651" gradientUnits="userSpaceOnUse">
<stop stop-color="#FF6300"/>
<stop offset="1" stop-color="#FFA700"/>
</linearGradient>
<linearGradient id="paint12_linear_11431_1857" x1="7.66477" y1="7.34197" x2="7.66477" y2="20.25" gradientUnits="userSpaceOnUse">
<stop stop-color="#FF7100"/>
<stop offset="1" stop-color="#FCA543"/>
</linearGradient>
<linearGradient id="paint13_linear_11431_1857" x1="2.07995" y1="11.6732" x2="2.07863" y2="8.70317" gradientUnits="userSpaceOnUse">
<stop stop-color="#FF6300"/>
<stop offset="1" stop-color="#FFA700"/>
</linearGradient>
<linearGradient id="paint14_linear_11431_1857" x1="5.19872" y1="11.6848" x2="5.19786" y2="7.8717" gradientUnits="userSpaceOnUse">
<stop stop-color="#FF6300"/>
<stop offset="1" stop-color="#FFA700"/>
</linearGradient>
<linearGradient id="paint15_linear_11431_1857" x1="6.07118" y1="14.7047" x2="5.92351" y2="10.7699" gradientUnits="userSpaceOnUse">
<stop stop-color="#FF6300"/>
<stop offset="1" stop-color="#FFA700"/>
</linearGradient>
<linearGradient id="paint16_linear_11431_1857" x1="7.33383" y1="17.5702" x2="7.3355" y2="13.0068" gradientUnits="userSpaceOnUse">
<stop stop-color="#FF6300"/>
<stop offset="1" stop-color="#FFA700"/>
</linearGradient>
<linearGradient id="paint17_linear_11431_1857" x1="9.29355" y1="19.451" x2="9.29502" y2="14.8931" gradientUnits="userSpaceOnUse">
<stop stop-color="#FF6300"/>
<stop offset="1" stop-color="#FFA700"/>
</linearGradient>
<linearGradient id="paint18_linear_11431_1857" x1="2.94293" y1="14.8107" x2="2.83831" y2="12.0211" gradientUnits="userSpaceOnUse">
<stop stop-color="#FF6300"/>
<stop offset="1" stop-color="#FFA700"/>
</linearGradient>
<linearGradient id="paint19_linear_11431_1857" x1="4.71722" y1="17.787" x2="4.71704" y2="15.6338" gradientUnits="userSpaceOnUse">
<stop stop-color="#FF6300"/>
<stop offset="1" stop-color="#FFA700"/>
</linearGradient>
<linearGradient id="paint20_linear_11431_1857" x1="7.45356" y1="20.4894" x2="7.45358" y2="18.6066" gradientUnits="userSpaceOnUse">
<stop stop-color="#FF6300"/>
<stop offset="1" stop-color="#FFA700"/>
</linearGradient>
<linearGradient id="paint21_linear_11431_1857" x1="3.61211" y1="9.27288" x2="3.61211" y2="4.61651" gradientUnits="userSpaceOnUse">
<stop stop-color="#FF6300"/>
<stop offset="1" stop-color="#FFA700"/>
</linearGradient>
<linearGradient id="paint22_linear_11431_1857" x1="13.9941" y1="14.629" x2="13.9941" y2="0.285273" gradientUnits="userSpaceOnUse">
<stop stop-color="#FF6300"/>
<stop offset="0.09" stop-color="#FF7100"/>
<stop offset="0.29" stop-color="#FF8800"/>
<stop offset="0.49" stop-color="#FF9900"/>
<stop offset="0.72" stop-color="#FFA300"/>
<stop offset="1" stop-color="#FFA700"/>
</linearGradient>
<linearGradient id="paint23_linear_11431_1857" x1="13.9941" y1="12.8009" x2="13.9941" y2="2.1134" gradientUnits="userSpaceOnUse">
<stop stop-color="#FFC68F"/>
<stop offset="1" stop-color="#FFF8E0"/>
</linearGradient>
<linearGradient id="paint24_linear_11431_1857" x1="13.9947" y1="11.0859" x2="13.9947" y2="3.82679" gradientUnits="userSpaceOnUse">
<stop stop-color="#FD6800"/>
<stop offset="0.71" stop-color="#FD8F30"/>
</linearGradient>
</defs>
</svg>
