<svg width="28" height="21" viewBox="0 0 28 21" fill="none" xmlns="http://www.w3.org/2000/svg">
<path d="M12.9395 13.8291H15.0657V18.6666H12.9395V13.8291Z" fill="url(#paint0_linear_11431_1902)"/>
<path d="M11.5996 20.7362C11.5996 19.4087 12.674 18.3231 14.0015 18.3231C15.329 18.3231 16.4034 19.4087 16.4034 20.7362H11.5996Z" fill="url(#paint1_linear_11431_1902)"/>
<path d="M16.2849 20.2433C16.1443 20.2433 16.0205 20.1365 16.0036 19.9902C15.9868 19.8327 16.0993 19.6977 16.2568 19.6808C16.2905 19.6752 18.3774 19.439 20.3686 17.8527C23.0068 15.749 24.2949 12.2108 24.0811 7.63208C24.0755 7.47458 24.1936 7.3452 24.3511 7.33958C24.503 7.32833 24.638 7.45208 24.6436 7.60958C24.7618 10.2702 24.4074 12.5877 23.5805 14.5002C22.9111 16.0415 21.9436 17.324 20.6949 18.314C18.5686 19.9958 16.403 20.2377 16.313 20.2433C16.3074 20.2433 16.2961 20.2433 16.2849 20.2433Z" fill="url(#paint2_linear_11431_1902)"/>
<path d="M26.5332 10.9002C25.5432 11.7214 24.1426 11.6595 24.1426 11.6595C24.1426 11.6595 24.3451 10.2702 25.3351 9.44891C26.3251 8.62766 27.7257 8.68954 27.7257 8.68954C27.7257 8.68954 27.5232 10.0789 26.5332 10.9002Z" fill="url(#paint3_linear_11431_1902)"/>
<path d="M23.5768 9.21355C24.3137 10.2654 24.1393 11.6604 24.1393 11.6604C24.1393 11.6604 22.7724 11.3454 22.0356 10.2936C21.2987 9.24168 21.4731 7.84668 21.4731 7.84668C21.4731 7.84668 22.8399 8.15605 23.5768 9.21355Z" fill="url(#paint4_linear_11431_1902)"/>
<path d="M22.8253 12.2512C23.4721 13.365 23.1796 14.7375 23.1796 14.7375C23.1796 14.7375 21.8409 14.3043 21.1996 13.1962C20.5528 12.0825 20.8453 10.71 20.8453 10.71C20.8453 10.71 22.184 11.1431 22.8253 12.2512Z" fill="url(#paint5_linear_11431_1902)"/>
<path d="M21.5835 15.1091C21.8422 16.3691 21.1278 17.5785 21.1278 17.5785C21.1278 17.5785 19.9972 16.746 19.7441 15.486C19.491 14.226 20.1997 13.0166 20.1997 13.0166C20.1997 13.0166 21.3247 13.8491 21.5835 15.1091Z" fill="url(#paint6_linear_11431_1902)"/>
<path d="M19.617 17.3746C19.3526 18.6346 18.2163 19.4615 18.2163 19.4615C18.2163 19.4615 17.5076 18.2465 17.772 16.9921C18.0363 15.7378 19.1726 14.9053 19.1726 14.9053C19.1726 14.9053 19.8813 16.1146 19.617 17.3746Z" fill="url(#paint7_linear_11431_1902)"/>
<path d="M25.6302 14.2026C24.5671 14.9283 23.1777 14.7426 23.1777 14.7426C23.1777 14.7426 23.504 13.3758 24.5671 12.6501C25.6302 11.9245 27.0196 12.1101 27.0196 12.1101C27.0196 12.1101 26.6934 13.477 25.6302 14.2026Z" fill="url(#paint8_linear_11431_1902)"/>
<path d="M23.6552 17.6071C22.4571 18.0739 21.1465 17.5789 21.1465 17.5789C21.1465 17.5789 21.7765 16.3246 22.9746 15.8577C24.1727 15.3908 25.4834 15.8858 25.4834 15.8858C25.4834 15.8858 24.8534 17.1402 23.6552 17.6071Z" fill="url(#paint9_linear_11431_1902)"/>
<path d="M20.5213 20.4588C19.2332 20.425 18.2207 19.4575 18.2207 19.4575C18.2207 19.4575 19.2895 18.5463 20.572 18.58C21.8545 18.6138 22.8726 19.5813 22.8726 19.5813C22.8726 19.5813 21.8038 20.4925 20.5213 20.4588Z" fill="url(#paint10_linear_11431_1902)"/>
<path d="M25.3298 6.94106C25.3298 8.22918 24.3904 9.2698 24.3904 9.2698C24.3904 9.2698 23.451 8.22918 23.451 6.94106C23.451 5.65293 24.3904 4.6123 24.3904 4.6123C24.3904 4.6123 25.3298 5.65856 25.3298 6.94106Z" fill="url(#paint11_linear_11431_1902)"/>
<path d="M11.736 20.2453C11.8767 20.2453 12.0004 20.1384 12.0173 19.9922C12.0342 19.8347 11.9217 19.6997 11.7642 19.6828C11.7304 19.6772 9.64354 19.4409 7.65229 17.8547C5.01417 15.7509 3.72604 12.2128 3.93979 7.63403C3.94542 7.47653 3.82729 7.34716 3.66979 7.34153C3.51792 7.33028 3.38292 7.45403 3.37729 7.61153C3.25354 10.2665 3.61354 12.5897 4.44042 14.5022C5.10979 16.0434 6.07729 17.3259 7.32604 18.3159C9.45229 19.9978 11.6179 20.2397 11.7079 20.2453H11.736Z" fill="url(#paint12_linear_11431_1902)"/>
<path d="M1.48352 10.9002C2.47352 11.7214 3.87977 11.6595 3.87977 11.6595C3.87977 11.6595 3.67727 10.2702 2.68727 9.44891C1.69727 8.62766 0.291016 8.68954 0.291016 8.68954C0.291016 8.68954 0.493516 10.0789 1.48352 10.9002Z" fill="url(#paint13_linear_11431_1902)"/>
<path d="M4.44182 9.21355C3.70495 10.2654 3.87932 11.6604 3.87932 11.6604C3.87932 11.6604 5.2462 11.3454 5.98307 10.2936C6.71995 9.24168 6.54557 7.84668 6.54557 7.84668C6.54557 7.84668 5.1787 8.15605 4.44182 9.21355Z" fill="url(#paint14_linear_11431_1902)"/>
<path d="M5.18592 12.2512C4.54467 13.365 4.83155 14.7375 4.83155 14.7375C4.83155 14.7375 6.1703 14.3043 6.81155 13.1962C7.4528 12.0881 7.16592 10.71 7.16592 10.71C7.16592 10.71 5.82717 11.1431 5.18592 12.2512Z" fill="url(#paint15_linear_11431_1902)"/>
<path d="M6.42561 15.1091C6.16686 16.3691 6.88124 17.5785 6.88124 17.5785C6.88124 17.5785 8.01186 16.746 8.27061 15.486C8.52936 14.226 7.81499 13.0166 7.81499 13.0166C7.81499 13.0166 6.68436 13.8491 6.42561 15.1091Z" fill="url(#paint16_linear_11431_1902)"/>
<path d="M8.39696 17.3746C8.66134 18.6346 9.79759 19.4615 9.79759 19.4615C9.79759 19.4615 10.5063 18.2465 10.242 16.9921C9.97759 15.7378 8.84133 14.9053 8.84133 14.9053C8.84133 14.9053 8.13259 16.1146 8.39696 17.3746Z" fill="url(#paint17_linear_11431_1902)"/>
<path d="M2.38742 14.2026C3.45055 14.9283 4.83992 14.7426 4.83992 14.7426C4.83992 14.7426 4.51367 13.3758 3.45055 12.6501C2.38742 11.9245 0.998047 12.1101 0.998047 12.1101C0.998047 12.1101 1.3243 13.477 2.38742 14.2026Z" fill="url(#paint18_linear_11431_1902)"/>
<path d="M4.36754 17.6072C5.56567 18.0741 6.87629 17.5791 6.87629 17.5791C6.87629 17.5791 6.24629 16.3247 5.05379 15.8578C3.85567 15.3909 2.54504 15.8859 2.54504 15.8859C2.54504 15.8859 3.16942 17.1403 4.36754 17.6072Z" fill="url(#paint19_linear_11431_1902)"/>
<path d="M7.50555 20.4588C8.79367 20.425 9.80617 19.4575 9.80617 19.4575C9.80617 19.4575 8.73742 18.5463 7.45492 18.58C6.17242 18.6138 5.1543 19.5813 5.1543 19.5813C5.1543 19.5813 6.22305 20.4925 7.50555 20.4588Z" fill="url(#paint20_linear_11431_1902)"/>
<path d="M2.68567 6.94106C2.68567 8.22918 3.62504 9.2698 3.62504 9.2698C3.62504 9.2698 4.56442 8.22918 4.56442 6.94106C4.56442 5.65293 3.62504 4.6123 3.62504 4.6123C3.62504 4.6123 2.68567 5.65856 2.68567 6.94106Z" fill="url(#paint21_linear_11431_1902)"/>
<path d="M14.0059 14.6318C17.9668 14.6318 21.1777 11.4209 21.1777 7.45996C21.1777 3.49904 17.9668 0.288086 14.0059 0.288086C10.0449 0.288086 6.83398 3.49904 6.83398 7.45996C6.83398 11.4209 10.0449 14.6318 14.0059 14.6318Z" fill="url(#paint22_linear_11431_1902)"/>
<path d="M14.0059 12.8037C16.9571 12.8037 19.3496 10.4112 19.3496 7.45996C19.3496 4.50869 16.9571 2.11621 14.0059 2.11621C11.0546 2.11621 8.66211 4.50869 8.66211 7.45996C8.66211 10.4112 11.0546 12.8037 14.0059 12.8037Z" fill="url(#paint23_linear_11431_1902)"/>
<path d="M10.771 9.58V8.48L14.041 3.8H15.671V8.36H16.551V9.58H15.671V11H14.271V9.58H10.771ZM14.361 5.3L12.311 8.36H14.361V5.3Z" fill="url(#paint24_linear_11431_1902)"/>
<defs>
<linearGradient id="paint0_linear_11431_1902" x1="14.0029" y1="18.6627" x2="14.0029" y2="13.8263" gradientUnits="userSpaceOnUse">
<stop stop-color="#D9D9D9"/>
<stop offset="1" stop-color="#858585"/>
</linearGradient>
<linearGradient id="paint1_linear_11431_1902" x1="14.0015" y1="18.3181" x2="14.0015" y2="20.7334" gradientUnits="userSpaceOnUse">
<stop stop-color="#D9D9D9"/>
<stop offset="1" stop-color="#858585"/>
</linearGradient>
<linearGradient id="paint2_linear_11431_1902" x1="20.3372" y1="7.33806" x2="20.3372" y2="20.2461" gradientUnits="userSpaceOnUse">
<stop stop-color="#ADADAD"/>
<stop offset="1" stop-color="#E6E6E6"/>
</linearGradient>
<linearGradient id="paint3_linear_11431_1902" x1="25.9213" y1="11.6716" x2="25.9226" y2="8.70156" gradientUnits="userSpaceOnUse">
<stop stop-color="#B3B3B3"/>
<stop offset="1" stop-color="#E6E6E6"/>
</linearGradient>
<linearGradient id="paint4_linear_11431_1902" x1="22.8037" y1="11.6832" x2="22.8046" y2="7.87002" gradientUnits="userSpaceOnUse">
<stop stop-color="#B3B3B3"/>
<stop offset="1" stop-color="#E6E6E6"/>
</linearGradient>
<linearGradient id="paint5_linear_11431_1902" x1="21.9245" y1="14.7025" x2="22.0721" y2="10.7678" gradientUnits="userSpaceOnUse">
<stop stop-color="#B3B3B3"/>
<stop offset="1" stop-color="#E6E6E6"/>
</linearGradient>
<linearGradient id="paint6_linear_11431_1902" x1="20.6643" y1="17.5679" x2="20.6627" y2="13.0045" gradientUnits="userSpaceOnUse">
<stop stop-color="#B3B3B3"/>
<stop offset="1" stop-color="#E6E6E6"/>
</linearGradient>
<linearGradient id="paint7_linear_11431_1902" x1="18.7095" y1="19.4486" x2="18.708" y2="14.8906" gradientUnits="userSpaceOnUse">
<stop stop-color="#B3B3B3"/>
<stop offset="1" stop-color="#E6E6E6"/>
</linearGradient>
<linearGradient id="paint8_linear_11431_1902" x1="25.059" y1="14.8084" x2="25.1637" y2="12.0189" gradientUnits="userSpaceOnUse">
<stop stop-color="#B3B3B3"/>
<stop offset="1" stop-color="#E6E6E6"/>
</linearGradient>
<linearGradient id="paint9_linear_11431_1902" x1="23.2899" y1="17.7854" x2="23.2901" y2="15.6321" gradientUnits="userSpaceOnUse">
<stop stop-color="#B3B3B3"/>
<stop offset="1" stop-color="#E6E6E6"/>
</linearGradient>
<linearGradient id="paint10_linear_11431_1902" x1="20.5542" y1="20.4873" x2="20.5542" y2="18.6044" gradientUnits="userSpaceOnUse">
<stop stop-color="#B3B3B3"/>
<stop offset="1" stop-color="#E6E6E6"/>
</linearGradient>
<linearGradient id="paint11_linear_11431_1902" x1="24.3876" y1="9.27093" x2="24.3876" y2="4.61455" gradientUnits="userSpaceOnUse">
<stop stop-color="#B3B3B3"/>
<stop offset="1" stop-color="#E6E6E6"/>
</linearGradient>
<linearGradient id="paint12_linear_11431_1902" x1="7.6843" y1="7.34001" x2="7.6843" y2="20.2481" gradientUnits="userSpaceOnUse">
<stop stop-color="#ADADAD"/>
<stop offset="1" stop-color="#E6E6E6"/>
</linearGradient>
<linearGradient id="paint13_linear_11431_1902" x1="2.09557" y1="11.6713" x2="2.09426" y2="8.70121" gradientUnits="userSpaceOnUse">
<stop stop-color="#B3B3B3"/>
<stop offset="1" stop-color="#E6E6E6"/>
</linearGradient>
<linearGradient id="paint14_linear_11431_1902" x1="5.21435" y1="11.6829" x2="5.21349" y2="7.86974" gradientUnits="userSpaceOnUse">
<stop stop-color="#B3B3B3"/>
<stop offset="1" stop-color="#E6E6E6"/>
</linearGradient>
<linearGradient id="paint15_linear_11431_1902" x1="6.0868" y1="14.7027" x2="5.93913" y2="10.768" gradientUnits="userSpaceOnUse">
<stop stop-color="#B3B3B3"/>
<stop offset="1" stop-color="#E6E6E6"/>
</linearGradient>
<linearGradient id="paint16_linear_11431_1902" x1="7.34555" y1="17.5683" x2="7.34722" y2="13.0048" gradientUnits="userSpaceOnUse">
<stop stop-color="#B3B3B3"/>
<stop offset="1" stop-color="#E6E6E6"/>
</linearGradient>
<linearGradient id="paint17_linear_11431_1902" x1="9.30526" y1="19.4491" x2="9.30674" y2="14.8911" gradientUnits="userSpaceOnUse">
<stop stop-color="#B3B3B3"/>
<stop offset="1" stop-color="#E6E6E6"/>
</linearGradient>
<linearGradient id="paint18_linear_11431_1902" x1="2.95856" y1="14.8087" x2="2.85394" y2="12.0192" gradientUnits="userSpaceOnUse">
<stop stop-color="#B3B3B3"/>
<stop offset="1" stop-color="#E6E6E6"/>
</linearGradient>
<linearGradient id="paint19_linear_11431_1902" x1="4.73297" y1="17.7851" x2="4.73278" y2="15.6319" gradientUnits="userSpaceOnUse">
<stop stop-color="#B3B3B3"/>
<stop offset="1" stop-color="#E6E6E6"/>
</linearGradient>
<linearGradient id="paint20_linear_11431_1902" x1="7.47309" y1="20.4875" x2="7.47311" y2="18.6047" gradientUnits="userSpaceOnUse">
<stop stop-color="#B3B3B3"/>
<stop offset="1" stop-color="#E6E6E6"/>
</linearGradient>
<linearGradient id="paint21_linear_11431_1902" x1="3.62786" y1="9.27093" x2="3.62786" y2="4.61455" gradientUnits="userSpaceOnUse">
<stop stop-color="#B3B3B3"/>
<stop offset="1" stop-color="#E6E6E6"/>
</linearGradient>
<linearGradient id="paint22_linear_11431_1902" x1="14.0059" y1="14.629" x2="14.0059" y2="0.285273" gradientUnits="userSpaceOnUse">
<stop stop-color="#B3B3B3"/>
<stop offset="0.2" stop-color="#C7C7C7"/>
<stop offset="0.43" stop-color="#D8D8D8"/>
<stop offset="0.68" stop-color="#E2E2E2"/>
<stop offset="1" stop-color="#E6E6E6"/>
</linearGradient>
<linearGradient id="paint23_linear_11431_1902" x1="14.0059" y1="12.8009" x2="14.0059" y2="2.1134" gradientUnits="userSpaceOnUse">
<stop stop-color="#616161"/>
<stop offset="1" stop-color="#9C9C9C"/>
</linearGradient>
<linearGradient id="paint24_linear_11431_1902" x1="13.8054" y1="11.9984" x2="13.8054" y2="2.00314" gradientUnits="userSpaceOnUse">
<stop stop-color="#B6B6B6"/>
<stop offset="1" stop-color="#EDEDED"/>
</linearGradient>
</defs>
</svg>
