<svg xmlns="http://www.w3.org/2000/svg" width="30" height="22" fill="none" viewBox="0 0 30 22"><g clip-path="url(#clip0_11431_1944)"><path fill="url(#paint0_linear_11431_1944)" d="M13.9395 14.8291H16.0657V19.6666H13.9395V14.8291Z"/><path fill="url(#paint1_linear_11431_1944)" d="M12.5996 21.7362C12.5996 20.4087 13.674 19.3231 15.0015 19.3231C16.329 19.3231 17.4034 20.4087 17.4034 21.7362H12.5996Z"/><path fill="url(#paint2_linear_11431_1944)" d="M17.2849 21.2433C17.1443 21.2433 17.0205 21.1365 17.0036 20.9902C16.9868 20.8327 17.0993 20.6977 17.2568 20.6808C17.2905 20.6752 19.3774 20.439 21.3686 18.8527C24.0068 16.749 25.2949 13.2108 25.0811 8.63208C25.0755 8.47458 25.1936 8.3452 25.3511 8.33958C25.503 8.32833 25.638 8.45208 25.6436 8.60958C25.7618 11.2702 25.4074 13.5877 24.5805 15.5002C23.9111 17.0415 22.9436 18.324 21.6949 19.314C19.5686 20.9958 17.403 21.2377 17.313 21.2433C17.3074 21.2433 17.2961 21.2433 17.2849 21.2433Z"/><path fill="url(#paint3_linear_11431_1944)" d="M27.5332 11.9002C26.5432 12.7214 25.1426 12.6595 25.1426 12.6595C25.1426 12.6595 25.3451 11.2702 26.3351 10.4489C27.3251 9.62766 28.7257 9.68954 28.7257 9.68954C28.7257 9.68954 28.5232 11.0789 27.5332 11.9002Z"/><path fill="url(#paint4_linear_11431_1944)" d="M24.5768 10.2136C25.3137 11.2654 25.1393 12.6604 25.1393 12.6604C25.1393 12.6604 23.7724 12.3454 23.0356 11.2936C22.2987 10.2417 22.4731 8.84668 22.4731 8.84668C22.4731 8.84668 23.8399 9.15605 24.5768 10.2136Z"/><path fill="url(#paint5_linear_11431_1944)" d="M23.8253 13.2512C24.4721 14.365 24.1796 15.7375 24.1796 15.7375C24.1796 15.7375 22.8409 15.3043 22.1996 14.1962C21.5528 13.0825 21.8453 11.71 21.8453 11.71C21.8453 11.71 23.184 12.1431 23.8253 13.2512Z"/><path fill="url(#paint6_linear_11431_1944)" d="M22.5835 16.1091C22.8422 17.3691 22.1278 18.5785 22.1278 18.5785C22.1278 18.5785 20.9972 17.746 20.7441 16.486C20.491 15.226 21.1997 14.0166 21.1997 14.0166C21.1997 14.0166 22.3247 14.8491 22.5835 16.1091Z"/><path fill="url(#paint7_linear_11431_1944)" d="M20.617 18.3746C20.3526 19.6346 19.2163 20.4615 19.2163 20.4615C19.2163 20.4615 18.5076 19.2465 18.772 17.9921C19.0363 16.7378 20.1726 15.9053 20.1726 15.9053C20.1726 15.9053 20.8813 17.1146 20.617 18.3746Z"/><path fill="url(#paint8_linear_11431_1944)" d="M26.6302 15.2026C25.5671 15.9283 24.1777 15.7426 24.1777 15.7426C24.1777 15.7426 24.504 14.3758 25.5671 13.6501C26.6302 12.9245 28.0196 13.1101 28.0196 13.1101C28.0196 13.1101 27.6934 14.477 26.6302 15.2026Z"/><path fill="url(#paint9_linear_11431_1944)" d="M24.6552 18.6071C23.4571 19.0739 22.1465 18.5789 22.1465 18.5789C22.1465 18.5789 22.7765 17.3246 23.9746 16.8577C25.1727 16.3908 26.4834 16.8858 26.4834 16.8858C26.4834 16.8858 25.8534 18.1402 24.6552 18.6071Z"/><path fill="url(#paint10_linear_11431_1944)" d="M21.5213 21.4588C20.2332 21.425 19.2207 20.4575 19.2207 20.4575C19.2207 20.4575 20.2895 19.5463 21.572 19.58C22.8545 19.6138 23.8726 20.5813 23.8726 20.5813C23.8726 20.5813 22.8038 21.4925 21.5213 21.4588Z"/><path fill="url(#paint11_linear_11431_1944)" d="M26.3298 7.94106C26.3298 9.22918 25.3904 10.2698 25.3904 10.2698C25.3904 10.2698 24.451 9.22918 24.451 7.94106C24.451 6.65293 25.3904 5.6123 25.3904 5.6123C25.3904 5.6123 26.3298 6.65856 26.3298 7.94106Z"/><path fill="url(#paint12_linear_11431_1944)" d="M12.736 21.2453C12.8767 21.2453 13.0004 21.1384 13.0173 20.9922C13.0342 20.8347 12.9217 20.6997 12.7642 20.6828C12.7304 20.6772 10.6435 20.4409 8.65229 18.8547C6.01417 16.7509 4.72604 13.2128 4.93979 8.63403C4.94542 8.47653 4.82729 8.34716 4.66979 8.34153C4.51792 8.33028 4.38292 8.45403 4.37729 8.61153C4.25354 11.2665 4.61354 13.5897 5.44042 15.5022C6.10979 17.0434 7.07729 18.3259 8.32604 19.3159C10.4523 20.9978 12.6179 21.2397 12.7079 21.2453H12.736Z"/><path fill="url(#paint13_linear_11431_1944)" d="M2.48352 11.9002C3.47352 12.7214 4.87977 12.6595 4.87977 12.6595C4.87977 12.6595 4.67727 11.2702 3.68727 10.4489C2.69727 9.62766 1.29102 9.68954 1.29102 9.68954C1.29102 9.68954 1.49352 11.0789 2.48352 11.9002Z"/><path fill="url(#paint14_linear_11431_1944)" d="M5.44182 10.2136C4.70495 11.2654 4.87932 12.6604 4.87932 12.6604C4.87932 12.6604 6.2462 12.3454 6.98307 11.2936C7.71995 10.2417 7.54557 8.84668 7.54557 8.84668C7.54557 8.84668 6.1787 9.15605 5.44182 10.2136Z"/><path fill="url(#paint15_linear_11431_1944)" d="M6.18592 13.2512C5.54467 14.365 5.83155 15.7375 5.83155 15.7375C5.83155 15.7375 7.1703 15.3043 7.81155 14.1962C8.4528 13.0881 8.16592 11.71 8.16592 11.71C8.16592 11.71 6.82717 12.1431 6.18592 13.2512Z"/><path fill="url(#paint16_linear_11431_1944)" d="M7.42561 16.1091C7.16686 17.3691 7.88124 18.5785 7.88124 18.5785C7.88124 18.5785 9.01186 17.746 9.27061 16.486C9.52936 15.226 8.81499 14.0166 8.81499 14.0166C8.81499 14.0166 7.68436 14.8491 7.42561 16.1091Z"/><path fill="url(#paint17_linear_11431_1944)" d="M9.39696 18.3746C9.66134 19.6346 10.7976 20.4615 10.7976 20.4615C10.7976 20.4615 11.5063 19.2465 11.242 17.9921C10.9776 16.7378 9.84133 15.9053 9.84133 15.9053C9.84133 15.9053 9.13259 17.1146 9.39696 18.3746Z"/><path fill="url(#paint18_linear_11431_1944)" d="M3.38742 15.2026C4.45055 15.9283 5.83992 15.7426 5.83992 15.7426C5.83992 15.7426 5.51367 14.3758 4.45055 13.6501C3.38742 12.9245 1.99805 13.1101 1.99805 13.1101C1.99805 13.1101 2.3243 14.477 3.38742 15.2026Z"/><path fill="url(#paint19_linear_11431_1944)" d="M5.36754 18.6072C6.56567 19.0741 7.87629 18.5791 7.87629 18.5791C7.87629 18.5791 7.24629 17.3247 6.05379 16.8578C4.85567 16.3909 3.54504 16.8859 3.54504 16.8859C3.54504 16.8859 4.16942 18.1403 5.36754 18.6072Z"/><path fill="url(#paint20_linear_11431_1944)" d="M8.50555 21.4588C9.79367 21.425 10.8062 20.4575 10.8062 20.4575C10.8062 20.4575 9.73742 19.5463 8.45492 19.58C7.17242 19.6138 6.1543 20.5813 6.1543 20.5813C6.1543 20.5813 7.22305 21.4925 8.50555 21.4588Z"/><path fill="url(#paint21_linear_11431_1944)" d="M3.68567 7.94106C3.68567 9.22918 4.62504 10.2698 4.62504 10.2698C4.62504 10.2698 5.56442 9.22918 5.56442 7.94106C5.56442 6.65293 4.62504 5.6123 4.62504 5.6123C4.62504 5.6123 3.68567 6.65856 3.68567 7.94106Z"/><path fill="url(#paint22_linear_11431_1944)" d="M15.0059 15.6318C18.9668 15.6318 22.1777 12.4209 22.1777 8.45996C22.1777 4.49904 18.9668 1.28809 15.0059 1.28809C11.0449 1.28809 7.83398 4.49904 7.83398 8.45996C7.83398 12.4209 11.0449 15.6318 15.0059 15.6318Z"/><path fill="url(#paint23_linear_11431_1944)" d="M15.0059 13.8037C17.9571 13.8037 20.3496 11.4112 20.3496 8.45996C20.3496 5.50869 17.9571 3.11621 15.0059 3.11621C12.0546 3.11621 9.66211 5.50869 9.66211 8.45996C9.66211 11.4112 12.0546 13.8037 15.0059 13.8037Z"/><path fill="url(#paint24_linear_11431_1944)" d="M17.1429 6.25887H13.9029V7.96887C14.0429 7.79553 14.2429 7.65553 14.5029 7.54887C14.7629 7.43553 15.0396 7.37887 15.3329 7.37887C15.8662 7.37887 16.3029 7.49553 16.6429 7.72887C16.9829 7.9622 17.2296 8.2622 17.3829 8.62887C17.5362 8.98887 17.6129 9.37553 17.6129 9.78887C17.6129 10.5555 17.3929 11.1722 16.9529 11.6389C16.5196 12.1055 15.8996 12.3389 15.0929 12.3389C14.3329 12.3389 13.7262 12.1489 13.2729 11.7689C12.8196 11.3889 12.5629 10.8922 12.5029 10.2789H13.8629C13.9229 10.5455 14.0562 10.7589 14.2629 10.9189C14.4762 11.0789 14.7462 11.1589 15.0729 11.1589C15.4662 11.1589 15.7629 11.0355 15.9629 10.7889C16.1629 10.5422 16.2629 10.2155 16.2629 9.80887C16.2629 9.39553 16.1596 9.0822 15.9529 8.86887C15.7529 8.64887 15.4562 8.53887 15.0629 8.53887C14.7829 8.53887 14.5496 8.60887 14.3629 8.74887C14.1762 8.88887 14.0429 9.07553 13.9629 9.30887H12.6229V5.02887H17.1429V6.25887Z"/></g><defs><linearGradient id="paint0_linear_11431_1944" x1="15.003" x2="15.003" y1="19.663" y2="14.826" gradientUnits="userSpaceOnUse"><stop stop-color="#D9D9D9"/><stop offset="1" stop-color="#858585"/></linearGradient><linearGradient id="paint1_linear_11431_1944" x1="15.002" x2="15.002" y1="19.318" y2="21.733" gradientUnits="userSpaceOnUse"><stop stop-color="#D9D9D9"/><stop offset="1" stop-color="#858585"/></linearGradient><linearGradient id="paint2_linear_11431_1944" x1="21.337" x2="21.337" y1="8.338" y2="21.246" gradientUnits="userSpaceOnUse"><stop stop-color="#ADADAD"/><stop offset="1" stop-color="#E6E6E6"/></linearGradient><linearGradient id="paint3_linear_11431_1944" x1="26.921" x2="26.923" y1="12.672" y2="9.702" gradientUnits="userSpaceOnUse"><stop stop-color="#B3B3B3"/><stop offset="1" stop-color="#E6E6E6"/></linearGradient><linearGradient id="paint4_linear_11431_1944" x1="23.804" x2="23.805" y1="12.683" y2="8.87" gradientUnits="userSpaceOnUse"><stop stop-color="#B3B3B3"/><stop offset="1" stop-color="#E6E6E6"/></linearGradient><linearGradient id="paint5_linear_11431_1944" x1="22.924" x2="23.072" y1="15.703" y2="11.768" gradientUnits="userSpaceOnUse"><stop stop-color="#B3B3B3"/><stop offset="1" stop-color="#E6E6E6"/></linearGradient><linearGradient id="paint6_linear_11431_1944" x1="21.664" x2="21.663" y1="18.568" y2="14.005" gradientUnits="userSpaceOnUse"><stop stop-color="#B3B3B3"/><stop offset="1" stop-color="#E6E6E6"/></linearGradient><linearGradient id="paint7_linear_11431_1944" x1="19.709" x2="19.708" y1="20.449" y2="15.891" gradientUnits="userSpaceOnUse"><stop stop-color="#B3B3B3"/><stop offset="1" stop-color="#E6E6E6"/></linearGradient><linearGradient id="paint8_linear_11431_1944" x1="26.059" x2="26.164" y1="15.808" y2="13.019" gradientUnits="userSpaceOnUse"><stop stop-color="#B3B3B3"/><stop offset="1" stop-color="#E6E6E6"/></linearGradient><linearGradient id="paint9_linear_11431_1944" x1="24.29" x2="24.29" y1="18.785" y2="16.632" gradientUnits="userSpaceOnUse"><stop stop-color="#B3B3B3"/><stop offset="1" stop-color="#E6E6E6"/></linearGradient><linearGradient id="paint10_linear_11431_1944" x1="21.554" x2="21.554" y1="21.487" y2="19.604" gradientUnits="userSpaceOnUse"><stop stop-color="#B3B3B3"/><stop offset="1" stop-color="#E6E6E6"/></linearGradient><linearGradient id="paint11_linear_11431_1944" x1="25.388" x2="25.388" y1="10.271" y2="5.615" gradientUnits="userSpaceOnUse"><stop stop-color="#B3B3B3"/><stop offset="1" stop-color="#E6E6E6"/></linearGradient><linearGradient id="paint12_linear_11431_1944" x1="8.684" x2="8.684" y1="8.34" y2="21.248" gradientUnits="userSpaceOnUse"><stop stop-color="#ADADAD"/><stop offset="1" stop-color="#E6E6E6"/></linearGradient><linearGradient id="paint13_linear_11431_1944" x1="3.096" x2="3.094" y1="12.671" y2="9.701" gradientUnits="userSpaceOnUse"><stop stop-color="#B3B3B3"/><stop offset="1" stop-color="#E6E6E6"/></linearGradient><linearGradient id="paint14_linear_11431_1944" x1="6.214" x2="6.213" y1="12.683" y2="8.87" gradientUnits="userSpaceOnUse"><stop stop-color="#B3B3B3"/><stop offset="1" stop-color="#E6E6E6"/></linearGradient><linearGradient id="paint15_linear_11431_1944" x1="7.087" x2="6.939" y1="15.703" y2="11.768" gradientUnits="userSpaceOnUse"><stop stop-color="#B3B3B3"/><stop offset="1" stop-color="#E6E6E6"/></linearGradient><linearGradient id="paint16_linear_11431_1944" x1="8.346" x2="8.347" y1="18.568" y2="14.005" gradientUnits="userSpaceOnUse"><stop stop-color="#B3B3B3"/><stop offset="1" stop-color="#E6E6E6"/></linearGradient><linearGradient id="paint17_linear_11431_1944" x1="10.305" x2="10.307" y1="20.449" y2="15.891" gradientUnits="userSpaceOnUse"><stop stop-color="#B3B3B3"/><stop offset="1" stop-color="#E6E6E6"/></linearGradient><linearGradient id="paint18_linear_11431_1944" x1="3.959" x2="3.854" y1="15.809" y2="13.019" gradientUnits="userSpaceOnUse"><stop stop-color="#B3B3B3"/><stop offset="1" stop-color="#E6E6E6"/></linearGradient><linearGradient id="paint19_linear_11431_1944" x1="5.733" x2="5.733" y1="18.785" y2="16.632" gradientUnits="userSpaceOnUse"><stop stop-color="#B3B3B3"/><stop offset="1" stop-color="#E6E6E6"/></linearGradient><linearGradient id="paint20_linear_11431_1944" x1="8.473" x2="8.473" y1="21.488" y2="19.605" gradientUnits="userSpaceOnUse"><stop stop-color="#B3B3B3"/><stop offset="1" stop-color="#E6E6E6"/></linearGradient><linearGradient id="paint21_linear_11431_1944" x1="4.628" x2="4.628" y1="10.271" y2="5.615" gradientUnits="userSpaceOnUse"><stop stop-color="#B3B3B3"/><stop offset="1" stop-color="#E6E6E6"/></linearGradient><linearGradient id="paint22_linear_11431_1944" x1="15.006" x2="15.006" y1="15.629" y2="1.285" gradientUnits="userSpaceOnUse"><stop stop-color="#B3B3B3"/><stop offset=".2" stop-color="#C7C7C7"/><stop offset=".43" stop-color="#D8D8D8"/><stop offset=".68" stop-color="#E2E2E2"/><stop offset="1" stop-color="#E6E6E6"/></linearGradient><linearGradient id="paint23_linear_11431_1944" x1="15.006" x2="15.006" y1="13.801" y2="3.113" gradientUnits="userSpaceOnUse"><stop stop-color="#616161"/><stop offset="1" stop-color="#9C9C9C"/></linearGradient><linearGradient id="paint24_linear_11431_1944" x1="15.217" x2="15.217" y1="13.337" y2="3.342" gradientUnits="userSpaceOnUse"><stop stop-color="#B6B6B6"/><stop offset="1" stop-color="#EDEDED"/></linearGradient><clipPath id="clip0_11431_1944"><rect width="28.8" height="21.6" fill="#fff" transform="translate(0.599609 0.200195)"/></clipPath></defs></svg>